<svg width="632" height="562" viewBox="0 0 632 562" fill="none" xmlns="http://www.w3.org/2000/svg">
<path d="M374.787 477.286C369.166 479.882 366.549 486.784 368.521 492.322C370.279 497.258 374.945 499.044 375.413 499.214C380.374 501.019 386.747 499.345 389.823 494.201C393.03 488.839 391.289 481.987 386.691 478.538C383.275 475.976 378.594 475.527 374.787 477.286Z" fill="#FFF323"/>
<path d="M368.521 450.344C374.16 450.553 379.799 450.762 385.438 450.97C385.39 429.728 385.779 407.784 386.691 385.184C388.302 345.269 391.384 307.404 395.462 271.781C384.811 271.99 374.16 272.199 363.509 272.408" fill="#FFF323"/>
<path d="M164.898 63.146C166.531 61.4741 171.42 63.8309 172.602 64.4001C174.703 65.4131 178.26 67.5613 181.467 72.1493C185.371 69.0486 190.407 69.1655 192.88 71.6724C195.215 74.0378 194.445 77.7005 194.346 78.1389C195.389 81.5604 196.432 84.9807 197.476 88.4016C199.242 89.7075 201.765 91.9128 203.908 95.2779C206.421 99.2269 207.28 102.997 207.611 105.29C211.884 106.57 216.402 104.698 218.173 101.309C219.492 98.7819 219.15 95.6685 217.378 93.2539C219.052 90.314 218.869 86.8306 216.919 84.4061C214.521 81.4229 210.637 81.5186 210.193 81.5372C214.685 81.035 218.551 78.3561 220.139 74.5924C221.673 70.961 220.501 67.6968 220.155 66.8286C226.818 59.1386 225.868 53.8797 225.629 52.7963C223.72 44.1583 208.733 37.4501 188.456 41.2928C193.252 34.7147 194.022 26.8087 190.504 21.0045C189.807 19.8553 186.528 14.4921 179.918 14.0092C173.821 13.5642 169.452 17.6042 168.783 18.2425C168.138 17.4959 165.76 14.9352 161.581 14.2882C156.707 13.5343 152.991 15.9409 152.265 16.4318C151.617 15.2408 150.186 13.0813 147.595 12.0151C143.41 10.2927 137.884 12.1188 134.197 16.7812C135.14 11.9109 132.937 7.74267 129.811 6.75691C126.979 5.86349 124.338 7.8795 124.172 8.0097C121.433 10.1665 120.55 14.5001 122.292 18.661C123.283 14.6356 122.011 10.593 119.16 8.63675C115.104 5.85486 109.379 8.3385 106.629 11.7694C103.31 15.911 104.575 21.122 104.749 21.7936C103.924 21.2536 99.181 18.2492 94.7252 19.9138C89.4032 21.9025 85.9464 30.0084 89.0863 38.7095C85.969 39.0104 81.5158 39.7743 76.5559 41.8421C74.7265 42.6047 69.6104 44.7814 65.2782 48.7337C56.9963 56.2903 50.47 71.3482 56.338 83.0291C57.4466 85.2357 59.7449 88.8101 64.6518 91.9646C63.7471 92.585 57.2845 97.1837 56.5067 105.749C55.8199 113.316 60.0638 118.549 60.8928 119.532C54.4236 124.722 53.0493 132.972 56.4609 137.915C59.5902 142.449 65.704 142.693 66.5316 142.714C63.8978 149.701 66.3177 157.506 72.1705 161.51C77.3131 165.028 84.2738 165.042 89.7134 161.51C89.1169 160.675 88.3603 159.415 87.8335 157.751C87.1806 155.686 87.164 153.889 87.243 152.758C90.4288 149.373 90.6553 147.185 90.3398 145.847C89.5207 142.377 84.5229 142.386 80.3155 136.449C79.2474 134.942 77.7123 132.717 78.4357 130.81C79.1358 128.966 81.3186 129.085 82.1947 127.051C83.0875 124.979 81.2986 123.752 81.5683 121.412C81.9961 117.704 87.1945 114.681 91.5925 113.894C96.047 113.097 96.4894 115.164 102.244 115.146C108.49 115.127 115.83 112.667 116.654 108.881C116.971 107.424 116.343 105.674 117.281 105.122C117.872 104.774 118.519 105.169 120.423 105.252C120.928 105.274 121.53 105.248 122.293 105.122C122.293 105.122 125.281 104.626 127.875 102.742C134.372 98.0226 133.007 86.7888 132.944 86.3258C132.08 79.8985 128.429 75.5981 126.679 73.7953C135.43 76.2391 139.953 79.1572 142.484 81.4747C143.697 82.5867 146.818 85.714 150.259 85.178C151.473 84.9886 152.058 84.4646 152.791 84.715C154.04 85.1408 154.903 87.5407 153.963 95.1896C155.19 94.8335 158.731 93.6385 161.157 90.2701C163.912 86.4447 164.14 81.3246 161.842 76.9731C163.113 75.3975 164.583 73.0467 164.898 70.037C165.274 66.4361 163.743 64.3277 164.898 63.146Z" fill="#FFF323"/>
<path d="M91.5933 165.898C89.92 166.93 89.9705 172.981 94.0995 175.922C97.1305 178.082 101.329 177.831 104.124 175.296C95.9408 166.48 92.8188 165.142 91.5933 165.898Z" fill="#FFF323"/>
<path d="M100.991 172.79C100.229 173.309 102.076 180.907 107.256 182.188C111.291 183.185 115.638 179.926 115.401 179.055C115.226 178.414 112.67 179.422 109.136 178.429C103.786 176.925 101.62 172.361 100.991 172.79Z" fill="#FFF323"/>
<path d="M142.969 371.401C141.778 371.698 135.956 373.025 128.056 375.027C121.001 376.815 115.15 378.4 111.016 379.546C116.1 391.575 121.131 404.108 126.052 417.138C131.814 432.392 137.014 447.243 141.715 461.622C157.848 461.811 190.826 459.663 219.406 437.187C225.318 432.537 230.282 427.616 234.442 422.777C242.378 408.158 250.315 393.538 258.251 378.919C270.155 356.99 282.059 335.062 293.963 313.133C274.605 324.935 257.955 333.01 246.347 338.195C209.654 354.582 176.822 362.942 142.969 371.401Z" fill="#31508C"/>
<path d="M87.2074 362.003C85.3296 363.053 89.1789 381.48 103.498 392.704C108.975 396.997 114.553 399.114 118.534 400.222C116.028 393.331 113.522 386.438 111.016 379.547C108.552 378.508 105.241 376.919 101.618 374.534C91.5968 367.939 88.4064 361.333 87.2074 362.003Z" fill="#31508C"/>
<path d="M87.2078 471.646C93.1031 469.79 105.233 465.084 115.997 453.531C124.78 444.104 128.784 434.269 130.615 428.591C125.77 432.768 115.761 440.224 101.044 443.382C91.1801 445.499 82.7427 444.924 77.1836 444.078C80.5248 453.268 83.8666 462.457 87.2078 471.646Z" fill="#31508C"/>
<path d="M484.431 203.49C485.253 205.874 487.812 212.239 494.455 216.648C498.049 219.032 501.546 219.988 503.853 220.407C506.568 216.439 509.283 212.471 511.998 208.503C502.809 206.831 493.62 205.161 484.431 203.49Z" fill="#31508C"/>
<path d="M198.419 99.1721C196.88 100.059 192.414 102.362 186.515 101.678C178.662 100.768 174.206 95.2537 173.357 94.1597" stroke="#31508C" stroke-width="3.7729"/>
<path d="M166.657 108.026C166.147 110.214 165.272 115.343 167.338 121.245C170.411 130.017 177.675 133.901 179.261 134.702C177.738 138.008 176.215 141.313 174.692 144.618" stroke="#31508C" stroke-width="3.7729"/>
<path d="M134.514 125.486C134.931 129.245 135.349 133.005 135.766 136.764" stroke="#31508C" stroke-width="3.7729"/>
<path d="M186.517 112.33C186.934 116.298 187.352 120.265 187.769 124.234" stroke="#31508C" stroke-width="3.7729"/>
<path d="M135.765 108.57C133.892 110.834 130.618 114.217 125.639 116.962C119.948 120.1 114.666 120.951 111.599 121.212" stroke="#31508C" stroke-width="3.7729"/>
<path d="M100.706 161.304C99.4207 157.133 100.123 153.591 101.881 152.741C104.179 151.632 107.739 155.379 108.495 156.175C111.995 159.858 114.085 165.832 112.338 167.458C111.254 168.467 108.836 167.67 107.45 166.708C104.612 164.74 103.481 160.266 104.97 155.556" stroke="#31508C" stroke-width="3.7729"/>
<path d="M95.1054 143.977C92.904 145.181 88.9683 147.806 87.9108 152.241C85.8271 160.982 96.6544 169.481 99.6588 171.839C107.897 178.305 116.888 179.595 121.865 179.847" stroke="#31508C" stroke-width="3.7729"/>
<path d="M210.084 114.992C213.867 130.734 214.245 143.832 213.927 152.58C213.409 166.824 212.765 179.961 204.165 192.222C201.523 195.987 196.962 202.319 188.615 205.842C178.006 210.319 167.957 207.44 160.911 205.422C142.699 200.205 130.829 188.17 125.057 181.272" stroke="#31508C" stroke-width="3.7729"/>
<path d="M200.568 196.355C202.812 201.981 205.055 207.607 207.298 213.232C209 217.5 210.702 221.768 212.403 226.036" stroke="#31508C" stroke-width="3.7729"/>
<path d="M137.646 193.779C143.988 202.054 147.84 209.643 150.176 215.081C155.052 226.434 154.627 231.463 153.935 234.504C153.105 238.154 151.442 240.907 150.176 242.649" stroke="#31508C" stroke-width="3.7729"/>
<path d="M126.727 72.0107C127.424 72.5953 135.468 79.5593 134.486 89.8267C134.274 92.0486 133.213 98.8691 127.22 102.842C121.919 106.355 116.319 105.283 114.977 105.025C113.836 104.807 107.7 103.631 107.334 100.654C107.032 98.1956 110.72 94.9813 113.194 95.6196C116.495 96.4712 118.76 104.475 116.602 109.1C113.862 114.973 103.189 117.106 90.1895 113.561" stroke="#31508C" stroke-width="3.7729"/>
<path d="M89.6532 117.146C85.9493 117.123 82.7151 118.934 81.6324 121.694C79.542 127.019 86.3034 133.728 88.7684 133.013C90.2112 132.594 91.0575 129.378 89.9727 127.811C88.1985 125.25 80.5231 126.033 78.8624 129.543C77.4648 132.497 79.9837 138.108 86.2303 141.445" stroke="#31508C" stroke-width="3.7729"/>
<path d="M128.47 36.9167C130.306 35.5198 135.596 31.9122 142.51 32.6675C152.596 33.7688 160.394 43.526 160.843 52.3374C160.902 53.4825 161.247 60.2626 157.072 62.61C152.686 65.0757 145.119 61.6336 144.54 57.4893C144.074 54.1541 148.094 50.0902 151.966 49.8066C158.531 49.3263 166.53 59.5757 165.411 68.7278C164.741 74.2145 160.626 80.6751 155.185 80.8996C151.853 81.0371 147.769 78.8444 147.309 75.9462C146.731 72.3021 151.946 67.95 156.099 68.3943C161.71 68.9942 166.731 78.4917 164.193 85.4025C162.702 89.4611 159.054 91.4041 157.666 92.0524" stroke="#31508C" stroke-width="3.7729"/>
<path d="M197.495 76.8432C197.649 75.7033 198.156 71.12 195.609 68.8263C190.924 64.607 179.195 71.1007 179.538 74.5601C179.744 76.6379 184.408 78.6599 185.921 77.4111C187.924 75.7571 185.567 67.3982 180.119 62.862C176.599 59.9306 172.665 59.3255 170.778 59.1667" stroke="#31508C" stroke-width="3.7729"/>
<path d="M198.104 42.2003C200.299 41.0392 205.708 38.5914 212.276 39.9219C220.095 41.5068 229.868 48.5134 229.115 57.4894C228.512 64.6793 221.355 70.7532 214.698 70.6582C211.333 70.6104 206.882 68.9691 206.488 66.512C205.954 63.1814 212.807 57.9239 217.439 59.447C222.621 61.1515 225.94 71.6447 221.34 77.4522C218.574 80.9442 213.354 82.2262 208.199 80.6685" stroke="#31508C" stroke-width="3.7729"/>
<path d="M218.774 82.5232C219.125 82.9364 222.936 87.5529 221.355 92.2857C220.6 94.5475 218.36 97.5958 216.061 97.0949C213.961 96.6372 212.204 93.304 213.175 91.5006C213.752 90.4285 215.293 89.9004 216.569 90.1475C219.92 90.7965 223.371 97.162 221.21 101.787C219.897 104.599 216.73 106.295 213.19 106.335" stroke="#31508C" stroke-width="3.7729"/>
<path d="M192.158 37.1521C192.638 36.5317 198.744 28.3613 195.408 18.9934C195.045 17.9744 191.692 8.9904 183.848 8.08901C176.744 7.27331 170.007 13.5525 169.532 19.8682C169.172 24.6508 172.379 29.7862 174.043 29.5364C175.747 29.2807 176.855 23.2253 175.421 18.195C174.258 14.1158 171.006 9.2468 166.023 7.77814C156.498 4.97167 145.849 16.1138 147.181 21.3614C147.891 24.1613 152.28 26.3394 154.593 25.151C158.938 22.9185 158.767 7.35966 152.258 4.49806C148.606 2.89256 143.102 5.84782 139.146 11.0755" stroke="#31508C" stroke-width="3.7729"/>
<path d="M83.8683 38.5131C76.6233 35.2636 71.7125 36.1636 69.4361 36.8485C54.4353 41.3607 44.8036 65.0095 52.784 80.5862C55.8149 86.502 60.7836 90.0419 64.5758 92.0725C63.3934 91.7025 57.6091 90.0213 53.233 93.223C47.6134 97.334 48.2026 106.654 51.0131 112.32C52.5143 115.346 54.6346 117.298 56.0607 118.401C54.5748 119.031 50.5786 120.982 48.9678 125.276C46.5878 131.619 51.0297 138.766 55.6974 142.153C58.6201 144.274 61.6232 144.914 63.4426 145.135" stroke="#31508C" stroke-width="3.7729"/>
<path d="M61.672 150.562C61.5099 151.487 60.285 159.169 65.3121 164.625C70.3339 170.075 79.5351 171.069 86.895 166.137C85.3221 170.592 86.5257 175.522 89.839 178.452C93.7727 181.932 98.7466 180.88 99.2813 180.758C99.4235 181.446 100.337 185.543 103.995 187.647C107.725 189.792 112.773 188.983 116.237 185.464" stroke="#31508C" stroke-width="3.7729"/>
<path d="M134.953 12.0725C134.966 6.70267 132.311 2.51987 129.644 2.04825C126.568 1.50356 121.812 5.60266 121.449 12.7354C121.244 13.4827 119.995 18.1544 121.275 18.8751C122.454 19.54 125.942 16.9335 126.003 14.2918C126.098 10.1601 117.865 3.66969 110.948 6.13075C106.038 7.87773 103.616 13.486 103.783 17.7565C103.88 20.2481 104.905 23.5063 106.104 23.576C107.372 23.6504 109.323 20.1784 108.439 17.9232C106.941 14.1018 96.3991 11.4707 90.9469 16.804C87.4689 20.2056 86.7096 26.2144 89.0318 31.7324" stroke="#31508C" stroke-width="3.7729"/>
<path d="M205.44 208.576C202.282 211.185 195.739 215.779 186.439 216.828C167.318 218.983 153.74 204.216 152.201 202.488C157.954 205.244 163.005 206.698 166.662 207.514C172.637 208.845 177.144 209.85 182.791 208.502C187.511 207.375 190.901 205.112 192.741 203.86C196.324 201.423 198.811 198.746 200.4 196.759C202.08 200.698 203.76 204.637 205.44 208.576Z" fill="#31508C"/>
<path d="M148.297 247.034C152.84 249.72 164.26 255.578 178.997 253.926C181.439 253.652 205.083 250.617 214.71 230.744C218.369 223.189 218.636 216.022 218.469 211.948" stroke="#31508C" stroke-width="3.7729"/>
<path d="M135.536 252.046C139.96 255.321 151.244 262.756 167.615 263.951C172.532 264.309 193.662 265.255 211.054 250.167C229.258 234.375 229.171 213.334 229.099 210.068" stroke="#31508C" stroke-width="3.7729"/>
<path d="M155.813 176.236C156.123 175.606 157.731 172.493 161.452 171.224C165.985 169.679 169.795 172.184 170.224 172.477" stroke="#31508C" stroke-width="3.7729"/>
<path d="M128.853 254.553C121.392 257.425 107.389 262.801 89.4226 269.589C65.0431 278.801 59.124 280.882 52.6661 286.506C42.5197 295.342 38.6477 306.299 33.9534 327.231C26.6493 359.802 30.7963 372.81 22.5921 406.174C19.6567 418.112 16.2637 427.65 13.9043 433.742C27.3215 436.264 39.4448 438.327 49.9925 440.007C80.3223 444.838 87.7473 444.93 95.4374 443.766C104.391 442.411 115.517 439.079 127.516 431.235" stroke="#31508C" stroke-width="3.7729"/>
<path d="M70.1807 450.658C77.9292 468.299 85.5754 487.105 92.9028 507.045C99.7479 525.672 105.722 543.674 110.947 560.928" stroke="#31508C" stroke-width="3.7729"/>
<path d="M79.3975 353.545C82.3109 357.476 86.6305 362.463 92.7636 367.329C99.426 372.614 105.922 375.924 110.808 377.98" stroke="#31508C" stroke-width="3.7729"/>
<path d="M94.7695 331.616C105.502 360.145 114.487 384.777 121.502 404.294C139.32 453.869 147.739 477.477 154.917 510.178C157.237 520.746 158.854 529.555 159.888 535.553" stroke="#31508C" stroke-width="3.7729"/>
<path d="M117.492 375.474C129.718 373.101 148.124 369.264 170.288 363.57C204.295 354.832 228.102 348.492 256.165 334.436C271.794 326.608 283.981 318.756 292.086 313.134" stroke="#31508C" stroke-width="3.7729"/>
<path d="M145.163 460.056C156.995 458.685 172.514 455.656 189.647 448.778C202.668 443.55 213.329 437.42 221.6 431.861" stroke="#31508C" stroke-width="3.7729"/>
<path d="M231.625 208.815C232.51 208.617 234.368 208.196 236.696 207.624C256.183 202.832 262.881 195.651 282.863 190.528C284.983 189.985 286.199 189.673 287.698 189.393C298.068 187.452 316.495 188.039 342.835 209.128" stroke="#31508C" stroke-width="3.7729"/>
<path d="M443.395 258.938C454.464 237.427 465.532 215.917 476.601 194.406" stroke="#31508C" stroke-width="3.7729"/>
<path d="M509.18 214.454C502.972 226.071 498.784 247.715 493.203 263.637C485.73 284.959 482.865 297.449 477.227 312.82" stroke="#31508C" stroke-width="3.7729"/>
<path d="M482.864 182.501C483.671 176.803 485.736 169.131 491.636 163.079C497.271 157.298 503.22 156.263 510.431 153.054C517.763 149.792 527.504 143.791 537.372 131.752C538.004 133.321 538.818 135.971 538.625 139.271C538.271 145.336 534.764 149.337 533.613 150.549" stroke="#31508C" stroke-width="3.7729"/>
<path d="M513.564 161.199C522.418 158.244 529.778 156.556 534.866 155.56C544.078 153.757 546.262 153.869 554.289 151.801C562.154 149.774 561.469 149.198 572.458 146.162C581.101 143.775 586.588 142.733 593.134 143.656C595.551 143.997 597.501 144.519 598.773 144.909" stroke="#31508C" stroke-width="3.7729"/>
<path d="M569.954 153.681C569.954 153.681 586.63 149.075 600.655 145.536C601.45 145.335 603.996 144.724 606.92 145.536C609.095 146.139 612.088 147.698 611.932 149.295C611.9 149.629 611.686 150.398 610.052 151.174" stroke="#31508C" stroke-width="3.7729"/>
<path d="M556.17 158.066C556.371 160.853 556.351 164.523 555.544 168.717C554.423 174.535 552.242 178.997 550.531 181.875" stroke="#31508C" stroke-width="3.7729"/>
<path d="M501.661 206.936C511.886 209.248 519.707 208.556 524.843 207.562C535.751 205.45 539.413 201.036 557.423 193.152C566.979 188.968 567.706 189.64 578.724 185.007C588.406 180.935 596.132 177.067 601.28 174.355C604.517 172.059 609.606 168.121 608.798 166.21C608 164.322 601.779 165.207 596.268 166.21C586.751 167.943 572.69 171.24 554.291 178.114" stroke="#31508C" stroke-width="3.7729"/>
<path d="M563.061 163.078C572.55 161.106 582.159 159.02 591.881 156.813C598.213 155.376 604.479 153.913 610.677 152.427C613.789 152.24 616.393 153.27 616.942 154.933C617.529 156.709 615.607 158.705 613.809 160.572C611.513 162.957 609.089 164.265 607.544 164.958" stroke="#31508C" stroke-width="3.7729"/>
<path d="M304.617 254.239C306.288 262.593 307.958 270.946 309.63 279.301" stroke="#31508C" stroke-width="3.7729"/>
<path d="M369.148 452.224C369.148 452.224 362.882 424.03 361.003 359.497C359.123 294.964 363.509 272.409 363.509 272.409C363.509 272.409 374.16 269.276 395.462 269.903C395.462 269.903 382.932 407.74 385.438 452.224H377.293" stroke="#31508C" stroke-width="3.7729"/>
<path fill-rule="evenodd" clip-rule="evenodd" d="M380.652 474.415C376.541 474.064 372.514 479.132 370.998 483.265C369.44 487.51 368.943 495.088 374.216 498.551C378.899 501.627 385.728 499.88 388.698 496.138C394.14 489.278 387.195 474.974 380.652 474.415Z" stroke="#31508C" stroke-width="3.7729"/>
<path fill-rule="evenodd" clip-rule="evenodd" d="M153.644 552.286C227.358 424.116 301.073 295.947 374.787 167.778C452.327 295.41 529.867 423.043 607.407 550.676C456.153 551.213 304.898 551.749 153.644 552.286Z" stroke="#31508C" stroke-width="3.7729" stroke-linecap="round" stroke-linejoin="round"/>
<path d="M2 501.72C2.30356 503.083 4.11963 510.641 11.3979 514.877C12.3411 515.426 21.6313 520.634 29.5672 515.504C37.0666 510.655 39.4652 499.113 35.8324 495.455C33.9174 493.526 29.9352 493.404 28.0009 495.141C25.3445 497.526 26.7893 503.196 28.6272 506.419C32.8107 513.754 42.7506 514.933 44.9174 515.19C63.4175 517.385 78.2981 498.047 80.0032 495.767" stroke="#31508C" stroke-width="3.7729" stroke-linecap="round" stroke-linejoin="round"/>
<path d="M328.424 69.4114C330.525 70.9784 340.887 78.3762 353.485 75.6767C367.308 72.7148 377.639 58.9209 375.414 55.0011C373.737 52.0459 363.777 52.6842 360.378 57.5073C356.13 63.5334 362.095 76.1297 371.029 81.3155C379.035 85.9633 389.766 84.8566 398.597 78.8093" stroke="#31508C" stroke-width="3.7729" stroke-linecap="round" stroke-linejoin="round"/>
<path d="M630 362.486C626.635 362.779 608.827 364.534 600.249 373.945C594.426 380.333 593.654 389.377 597.563 390.457C601.194 391.46 610.782 386.128 612.117 380.039C613.512 373.682 605.475 368.472 598.785 366.508C587.802 363.285 572.438 366.461 561.18 374.737" stroke="#31508C" stroke-width="3.7729" stroke-linecap="round" stroke-linejoin="round"/>
</svg>
