<svg width="194" height="63" viewBox="0 0 194 63" fill="none" xmlns="http://www.w3.org/2000/svg">
<rect width="193.515" height="63" rx="12" fill="#31508C"/>
<path d="M72.892 45.444H67.798L66.898 48H64.216L68.896 35.436H71.794L76.456 48H73.774L72.892 45.444ZM72.208 43.518L70.336 38.154L68.464 43.518H72.208ZM83.7838 37.902C84.6238 37.902 85.3798 38.106 86.0518 38.514C86.7238 38.922 87.2458 39.516 87.6178 40.296C88.0018 41.064 88.1938 41.97 88.1938 43.014C88.1938 44.058 88.0018 44.97 87.6178 45.75C87.2458 46.518 86.7238 47.106 86.0518 47.514C85.3798 47.922 84.6238 48.126 83.7838 48.126C82.9438 48.126 82.2238 47.928 81.6238 47.532C81.0358 47.124 80.6158 46.584 80.3638 45.912V52.752H77.8258V38.028H80.3638V40.098C80.6158 39.426 81.0358 38.892 81.6238 38.496C82.2238 38.1 82.9438 37.902 83.7838 37.902ZM82.9918 40.116C82.2238 40.116 81.5878 40.38 81.0838 40.908C80.5918 41.424 80.3458 42.126 80.3458 43.014C80.3458 43.89 80.5918 44.592 81.0838 45.12C81.5878 45.636 82.2238 45.894 82.9918 45.894C83.7838 45.894 84.4198 45.642 84.8998 45.138C85.3798 44.622 85.6198 43.914 85.6198 43.014C85.6198 42.114 85.3798 41.406 84.8998 40.89C84.4198 40.374 83.7838 40.116 82.9918 40.116ZM95.9479 37.902C96.7879 37.902 97.5439 38.106 98.2159 38.514C98.8879 38.922 99.4099 39.516 99.7819 40.296C100.166 41.064 100.358 41.97 100.358 43.014C100.358 44.058 100.166 44.97 99.7819 45.75C99.4099 46.518 98.8879 47.106 98.2159 47.514C97.5439 47.922 96.7879 48.126 95.9479 48.126C95.1079 48.126 94.3879 47.928 93.7879 47.532C93.1999 47.124 92.7799 46.584 92.5279 45.912V52.752H89.9899V38.028H92.5279V40.098C92.7799 39.426 93.1999 38.892 93.7879 38.496C94.3879 38.1 95.1079 37.902 95.9479 37.902ZM95.1559 40.116C94.3879 40.116 93.7519 40.38 93.2479 40.908C92.7559 41.424 92.5099 42.126 92.5099 43.014C92.5099 43.89 92.7559 44.592 93.2479 45.12C93.7519 45.636 94.3879 45.894 95.1559 45.894C95.9479 45.894 96.5839 45.642 97.0639 45.138C97.5439 44.622 97.7839 43.914 97.7839 43.014C97.7839 42.114 97.5439 41.406 97.0639 40.89C96.5839 40.374 95.9479 40.116 95.1559 40.116ZM114.804 44.526C114.804 45.174 114.642 45.774 114.318 46.326C113.994 46.866 113.514 47.304 112.878 47.64C112.242 47.964 111.468 48.126 110.556 48.126C109.656 48.126 108.852 47.976 108.144 47.676C107.436 47.364 106.866 46.92 106.434 46.344C106.014 45.768 105.774 45.096 105.714 44.328H108.414C108.474 44.844 108.678 45.276 109.026 45.624C109.386 45.96 109.86 46.128 110.448 46.128C110.976 46.128 111.378 45.99 111.654 45.714C111.942 45.426 112.086 45.06 112.086 44.616C112.086 44.22 111.972 43.896 111.744 43.644C111.516 43.38 111.228 43.17 110.88 43.014C110.532 42.858 110.052 42.678 109.44 42.474C108.648 42.21 108 41.952 107.496 41.7C106.992 41.436 106.56 41.058 106.2 40.566C105.852 40.074 105.678 39.432 105.678 38.64C105.678 37.548 106.068 36.69 106.848 36.066C107.64 35.43 108.684 35.112 109.98 35.112C111.324 35.112 112.392 35.436 113.184 36.084C113.988 36.732 114.444 37.596 114.552 38.676H111.816C111.744 38.22 111.552 37.848 111.24 37.56C110.928 37.26 110.502 37.11 109.962 37.11C109.494 37.11 109.116 37.236 108.828 37.488C108.54 37.728 108.396 38.082 108.396 38.55C108.396 38.922 108.504 39.234 108.72 39.486C108.948 39.726 109.23 39.924 109.566 40.08C109.914 40.236 110.382 40.41 110.97 40.602C111.786 40.89 112.446 41.16 112.95 41.412C113.466 41.664 113.904 42.042 114.264 42.546C114.624 43.05 114.804 43.71 114.804 44.526ZM122.001 45.822V48H120.669C119.553 48 118.695 47.73 118.095 47.19C117.507 46.65 117.213 45.75 117.213 44.49V40.17H115.827V38.028H117.213V35.562H119.751V38.028H121.983V40.17H119.751V44.526C119.751 45.006 119.847 45.342 120.039 45.534C120.231 45.726 120.555 45.822 121.011 45.822H122.001ZM128.436 37.902C129.408 37.902 130.278 38.106 131.046 38.514C131.826 38.922 132.438 39.516 132.882 40.296C133.326 41.064 133.548 41.97 133.548 43.014C133.548 44.058 133.326 44.964 132.882 45.732C132.438 46.5 131.826 47.094 131.046 47.514C130.278 47.922 129.408 48.126 128.436 48.126C127.464 48.126 126.588 47.922 125.808 47.514C125.04 47.094 124.434 46.5 123.99 45.732C123.546 44.964 123.324 44.058 123.324 43.014C123.324 41.97 123.546 41.064 123.99 40.296C124.434 39.516 125.04 38.922 125.808 38.514C126.588 38.106 127.464 37.902 128.436 37.902ZM128.436 40.098C127.728 40.098 127.128 40.35 126.636 40.854C126.144 41.346 125.898 42.066 125.898 43.014C125.898 43.962 126.144 44.688 126.636 45.192C127.128 45.684 127.728 45.93 128.436 45.93C129.144 45.93 129.744 45.684 130.236 45.192C130.728 44.688 130.974 43.962 130.974 43.014C130.974 42.066 130.728 41.346 130.236 40.854C129.744 40.35 129.144 40.098 128.436 40.098ZM137.879 39.936C138.251 39.3 138.743 38.802 139.355 38.442C139.967 38.07 140.651 37.884 141.407 37.884V40.602H140.669C138.809 40.602 137.879 41.466 137.879 43.194V48H135.341V38.028H137.879V39.936ZM152.19 42.636C152.19 42.888 152.16 43.176 152.1 43.5H144.792C144.828 44.388 145.068 45.042 145.512 45.462C145.956 45.882 146.508 46.092 147.168 46.092C147.756 46.092 148.242 45.948 148.626 45.66C149.022 45.372 149.274 44.982 149.382 44.49H152.064C151.932 45.186 151.65 45.81 151.218 46.362C150.786 46.914 150.228 47.346 149.544 47.658C148.872 47.97 148.122 48.126 147.294 48.126C146.322 48.126 145.458 47.922 144.702 47.514C143.946 47.094 143.358 46.5 142.938 45.732C142.518 44.964 142.308 44.058 142.308 43.014C142.308 41.97 142.518 41.064 142.938 40.296C143.358 39.516 143.946 38.922 144.702 38.514C145.458 38.106 146.322 37.902 147.294 37.902C148.278 37.902 149.136 38.106 149.868 38.514C150.612 38.922 151.182 39.486 151.578 40.206C151.986 40.914 152.19 41.724 152.19 42.636ZM149.634 42.384C149.67 41.568 149.454 40.95 148.986 40.53C148.53 40.11 147.966 39.9 147.294 39.9C146.61 39.9 146.034 40.11 145.566 40.53C145.098 40.95 144.84 41.568 144.792 42.384H149.634Z" fill="white"/>
<path d="M71.337 16.117C71.337 16.9017 71.1793 17.5873 70.864 18.174C70.5487 18.7533 70.083 19.2043 69.467 19.527C68.8583 19.8423 68.125 20 67.267 20H64.803V12.245H67.267C68.125 12.245 68.8583 12.4027 69.467 12.718C70.083 13.026 70.5487 13.4733 70.864 14.06C71.1793 14.6393 71.337 15.325 71.337 16.117ZM67.19 19.098C68.202 19.098 68.9757 18.8377 69.511 18.317C70.0463 17.7963 70.314 17.063 70.314 16.117C70.314 15.171 70.0463 14.4377 69.511 13.917C68.983 13.389 68.2093 13.125 67.19 13.125H65.804V19.098H67.19ZM75.4268 13.884C76.0061 13.884 76.5231 14.0087 76.9778 14.258C77.4398 14.5073 77.7991 14.8667 78.0558 15.336C78.3198 15.8053 78.4518 16.3553 78.4518 16.986C78.4518 17.6167 78.3198 18.1667 78.0558 18.636C77.7991 19.098 77.4398 19.4537 76.9778 19.703C76.5231 19.9523 76.0061 20.077 75.4268 20.077C74.8474 20.077 74.3268 19.9523 73.8648 19.703C73.4101 19.4537 73.0508 19.098 72.7868 18.636C72.5228 18.1667 72.3908 17.6167 72.3908 16.986C72.3908 16.3553 72.5228 15.8053 72.7868 15.336C73.0508 14.8667 73.4101 14.5073 73.8648 14.258C74.3268 14.0087 74.8474 13.884 75.4268 13.884ZM75.4268 14.764C75.0674 14.764 74.7338 14.8447 74.4258 15.006C74.1251 15.1673 73.8794 15.4167 73.6888 15.754C73.5054 16.084 73.4138 16.4947 73.4138 16.986C73.4138 17.47 73.5054 17.8807 73.6888 18.218C73.8794 18.548 74.1251 18.7937 74.4258 18.955C74.7338 19.1163 75.0674 19.197 75.4268 19.197C75.7861 19.197 76.1161 19.1163 76.4168 18.955C76.7248 18.7937 76.9704 18.548 77.1538 18.218C77.3444 17.8807 77.4398 17.47 77.4398 16.986C77.4398 16.4947 77.3444 16.084 77.1538 15.754C76.9704 15.4167 76.7248 15.1673 76.4168 15.006C76.1161 14.8447 75.7861 14.764 75.4268 14.764ZM88.0501 13.961L86.3121 20H85.2341L83.5731 15.083L81.9011 20H80.8121L79.0961 13.961H80.1081L81.3951 19.043L83.0671 13.961H84.1121L85.7951 19.032L87.0931 13.961H88.0501ZM92.1627 13.862C92.8667 13.862 93.435 14.0893 93.8677 14.544C94.3003 14.9913 94.5167 15.6403 94.5167 16.491V20H93.5157V16.579C93.5157 15.9777 93.3617 15.5157 93.0537 15.193C92.7457 14.8703 92.3277 14.709 91.7997 14.709C91.2497 14.709 90.8097 14.8887 90.4797 15.248C90.1497 15.6 89.9847 16.117 89.9847 16.799V20H88.9837V13.961H89.9847V15.391C90.1387 14.8997 90.41 14.522 90.7987 14.258C91.1947 13.994 91.6493 13.862 92.1627 13.862ZM97.053 11.86V20H96.052V11.86H97.053ZM101.401 13.884C101.981 13.884 102.498 14.0087 102.952 14.258C103.414 14.5073 103.774 14.8667 104.03 15.336C104.294 15.8053 104.426 16.3553 104.426 16.986C104.426 17.6167 104.294 18.1667 104.03 18.636C103.774 19.098 103.414 19.4537 102.952 19.703C102.498 19.9523 101.981 20.077 101.401 20.077C100.822 20.077 100.301 19.9523 99.8394 19.703C99.3847 19.4537 99.0254 19.098 98.7614 18.636C98.4974 18.1667 98.3654 17.6167 98.3654 16.986C98.3654 16.3553 98.4974 15.8053 98.7614 15.336C99.0254 14.8667 99.3847 14.5073 99.8394 14.258C100.301 14.0087 100.822 13.884 101.401 13.884ZM101.401 14.764C101.042 14.764 100.708 14.8447 100.4 15.006C100.1 15.1673 99.854 15.4167 99.6634 15.754C99.48 16.084 99.3884 16.4947 99.3884 16.986C99.3884 17.47 99.48 17.8807 99.6634 18.218C99.854 18.548 100.1 18.7937 100.4 18.955C100.708 19.1163 101.042 19.197 101.401 19.197C101.761 19.197 102.091 19.1163 102.391 18.955C102.699 18.7937 102.945 18.548 103.128 18.218C103.319 17.8807 103.414 17.47 103.414 16.986C103.414 16.4947 103.319 16.084 103.128 15.754C102.945 15.4167 102.699 15.1673 102.391 15.006C102.091 14.8447 101.761 14.764 101.401 14.764ZM108.206 13.884C108.792 13.884 109.287 14.0307 109.691 14.324C110.101 14.6173 110.387 15.0097 110.549 15.501V13.961H111.55V20H110.549V18.46C110.387 18.9513 110.101 19.3437 109.691 19.637C109.287 19.9303 108.792 20.077 108.206 20.077C107.67 20.077 107.194 19.9523 106.776 19.703C106.358 19.4537 106.028 19.098 105.786 18.636C105.551 18.1667 105.434 17.6167 105.434 16.986C105.434 16.3553 105.551 15.8053 105.786 15.336C106.028 14.8667 106.358 14.5073 106.776 14.258C107.194 14.0087 107.67 13.884 108.206 13.884ZM108.492 14.775C107.876 14.775 107.381 14.973 107.007 15.369C106.64 15.7577 106.457 16.2967 106.457 16.986C106.457 17.6753 106.64 18.218 107.007 18.614C107.381 19.0027 107.876 19.197 108.492 19.197C108.888 19.197 109.24 19.1053 109.548 18.922C109.863 18.7387 110.109 18.482 110.285 18.152C110.461 17.8147 110.549 17.426 110.549 16.986C110.549 16.546 110.461 16.1573 110.285 15.82C110.109 15.4827 109.863 15.226 109.548 15.05C109.24 14.8667 108.888 14.775 108.492 14.775ZM115.618 13.884C116.205 13.884 116.7 14.0307 117.103 14.324C117.514 14.6173 117.8 15.0097 117.961 15.501V11.86H118.962V20H117.961V18.46C117.8 18.9513 117.514 19.3437 117.103 19.637C116.7 19.9303 116.205 20.077 115.618 20.077C115.083 20.077 114.606 19.9523 114.188 19.703C113.77 19.4537 113.44 19.098 113.198 18.636C112.963 18.1667 112.846 17.6167 112.846 16.986C112.846 16.3553 112.963 15.8053 113.198 15.336C113.44 14.8667 113.77 14.5073 114.188 14.258C114.606 14.0087 115.083 13.884 115.618 13.884ZM115.904 14.775C115.288 14.775 114.793 14.973 114.419 15.369C114.052 15.7577 113.869 16.2967 113.869 16.986C113.869 17.6753 114.052 18.218 114.419 18.614C114.793 19.0027 115.288 19.197 115.904 19.197C116.3 19.197 116.652 19.1053 116.96 18.922C117.275 18.7387 117.521 18.482 117.697 18.152C117.873 17.8147 117.961 17.426 117.961 16.986C117.961 16.546 117.873 16.1573 117.697 15.82C117.521 15.4827 117.275 15.226 116.96 15.05C116.652 14.8667 116.3 14.775 115.904 14.775ZM126.012 13.884C126.591 13.884 127.108 14.0087 127.563 14.258C128.025 14.5073 128.384 14.8667 128.641 15.336C128.905 15.8053 129.037 16.3553 129.037 16.986C129.037 17.6167 128.905 18.1667 128.641 18.636C128.384 19.098 128.025 19.4537 127.563 19.703C127.108 19.9523 126.591 20.077 126.012 20.077C125.432 20.077 124.912 19.9523 124.45 19.703C123.995 19.4537 123.636 19.098 123.372 18.636C123.108 18.1667 122.976 17.6167 122.976 16.986C122.976 16.3553 123.108 15.8053 123.372 15.336C123.636 14.8667 123.995 14.5073 124.45 14.258C124.912 14.0087 125.432 13.884 126.012 13.884ZM126.012 14.764C125.652 14.764 125.319 14.8447 125.011 15.006C124.71 15.1673 124.464 15.4167 124.274 15.754C124.09 16.084 123.999 16.4947 123.999 16.986C123.999 17.47 124.09 17.8807 124.274 18.218C124.464 18.548 124.71 18.7937 125.011 18.955C125.319 19.1163 125.652 19.197 126.012 19.197C126.371 19.197 126.701 19.1163 127.002 18.955C127.31 18.7937 127.555 18.548 127.739 18.218C127.929 17.8807 128.025 17.47 128.025 16.986C128.025 16.4947 127.929 16.084 127.739 15.754C127.555 15.4167 127.31 15.1673 127.002 15.006C126.701 14.8447 126.371 14.764 126.012 14.764ZM133.52 13.862C134.224 13.862 134.792 14.0893 135.225 14.544C135.658 14.9913 135.874 15.6403 135.874 16.491V20H134.873V16.579C134.873 15.9777 134.719 15.5157 134.411 15.193C134.103 14.8703 133.685 14.709 133.157 14.709C132.607 14.709 132.167 14.8887 131.837 15.248C131.507 15.6 131.342 16.117 131.342 16.799V20H130.341V13.961H131.342V15.391C131.496 14.8997 131.767 14.522 132.156 14.258C132.552 13.994 133.007 13.862 133.52 13.862ZM143.009 19.12V20H142.261C141.645 20 141.183 19.8533 140.875 19.56C140.575 19.2667 140.424 18.7753 140.424 18.086V14.83H139.522V13.961H140.424V12.454H141.436V13.961H142.998V14.83H141.436V18.108C141.436 18.4967 141.506 18.7643 141.645 18.911C141.792 19.0503 142.041 19.12 142.393 19.12H143.009ZM147.41 13.862C148.114 13.862 148.682 14.0893 149.115 14.544C149.547 14.9913 149.764 15.6403 149.764 16.491V20H148.763V16.579C148.763 15.9777 148.609 15.5157 148.301 15.193C147.993 14.8703 147.575 14.709 147.047 14.709C146.497 14.709 146.057 14.8887 145.727 15.248C145.397 15.6 145.232 16.117 145.232 16.799V20H144.231V11.86H145.232V15.391C145.386 14.8997 145.657 14.522 146.046 14.258C146.442 13.994 146.896 13.862 147.41 13.862ZM156.854 16.645C156.854 16.8577 156.839 17.041 156.81 17.195H151.981C152.003 17.8843 152.197 18.4013 152.564 18.746C152.938 19.0907 153.393 19.263 153.928 19.263C154.412 19.263 154.815 19.142 155.138 18.9C155.468 18.6507 155.67 18.3207 155.743 17.91H156.81C156.737 18.328 156.572 18.702 156.315 19.032C156.066 19.362 155.739 19.6187 155.336 19.802C154.933 19.9853 154.478 20.077 153.972 20.077C153.393 20.077 152.879 19.9523 152.432 19.703C151.985 19.4537 151.633 19.098 151.376 18.636C151.127 18.1667 151.002 17.6167 151.002 16.986C151.002 16.3553 151.127 15.8053 151.376 15.336C151.633 14.8667 151.985 14.5073 152.432 14.258C152.879 14.0087 153.393 13.884 153.972 13.884C154.559 13.884 155.068 14.0087 155.501 14.258C155.941 14.5073 156.275 14.841 156.502 15.259C156.737 15.677 156.854 16.139 156.854 16.645ZM155.842 16.711C155.864 16.2637 155.791 15.8897 155.622 15.589C155.453 15.2883 155.222 15.0647 154.929 14.918C154.636 14.7713 154.317 14.698 153.972 14.698C153.422 14.698 152.96 14.8703 152.586 15.215C152.212 15.5523 152.01 16.051 151.981 16.711H155.842Z" fill="white"/>
<path d="M41.1177 29.9092C41.1043 27.3282 42.2127 25.3802 44.4561 23.9456C43.2009 22.0538 41.3046 21.013 38.8008 20.8091C36.4305 20.6122 33.8398 22.2648 32.8917 22.2648C31.8902 22.2648 29.5933 20.8794 27.7906 20.8794C24.0649 20.9427 20.1055 24.0089 20.1055 30.2467C20.1055 32.0893 20.426 33.9927 21.0669 35.9572C21.9216 38.5381 25.0063 44.8674 28.2246 44.7619C29.9072 44.7197 31.0956 43.5031 33.2857 43.5031C35.4089 43.5031 36.5106 44.7619 38.3868 44.7619C41.6318 44.7127 44.4227 38.96 45.2373 36.3721C40.884 34.2131 41.1177 30.0428 41.1177 29.9092ZM37.3385 18.3618C39.1613 16.0832 38.9944 14.0086 38.941 13.2632C37.3319 13.3616 35.469 14.4165 34.4074 15.7175C33.2389 17.11 32.5512 18.8329 32.6981 20.7739C34.4408 20.9146 36.0299 19.9722 37.3385 18.3618Z" fill="white"/>
</svg>
