<svg width="24" height="24" viewBox="0 0 24 24" fill="none" xmlns="http://www.w3.org/2000/svg">
<path d="M19.4397 12.9999C19.2197 12.9999 18.9897 12.9299 18.7697 12.8799C18.3242 12.7817 17.8864 12.6514 17.4597 12.4899C16.9958 12.3211 16.4859 12.3299 16.028 12.5145C15.5702 12.6991 15.1968 13.0465 14.9797 13.4899L14.7597 13.9399C13.7857 13.398 12.8907 12.7251 12.0997 11.9399C11.3145 11.1489 10.6416 10.2539 10.0997 9.27987L10.5197 8.99987C10.9631 8.78279 11.3105 8.4094 11.4951 7.95156C11.6797 7.49372 11.6885 6.98378 11.5197 6.51987C11.361 6.09229 11.2307 5.65467 11.1297 5.20987C11.0797 4.98987 11.0397 4.75987 11.0097 4.52987C10.8883 3.82549 10.5194 3.18761 9.96936 2.73111C9.41935 2.2746 8.72443 2.02948 8.00974 2.03987H5.00974C4.57877 2.03582 4.15198 2.12468 3.75844 2.3004C3.3649 2.47612 3.01384 2.73456 2.72917 3.05815C2.44449 3.38174 2.23287 3.76286 2.10872 4.17558C1.98458 4.5883 1.95081 5.02293 2.00973 5.44987C2.54247 9.63925 4.45576 13.5317 7.44739 16.5125C10.439 19.4933 14.3384 21.3924 18.5297 21.9099H18.9097C19.6472 21.911 20.3591 21.6404 20.9097 21.1499C21.2261 20.8669 21.4788 20.52 21.6512 20.1322C21.8236 19.7443 21.9117 19.3243 21.9097 18.8999V15.8999C21.8975 15.2053 21.6445 14.5364 21.1941 14.0075C20.7436 13.4786 20.1236 13.1225 19.4397 12.9999ZM19.9397 18.9999C19.9396 19.1419 19.9091 19.2822 19.8505 19.4115C19.7919 19.5408 19.7064 19.6562 19.5997 19.7499C19.488 19.8463 19.3573 19.9184 19.2161 19.9615C19.0749 20.0045 18.9263 20.0176 18.7797 19.9999C15.0346 19.5197 11.556 17.8064 8.89245 15.1302C6.22893 12.454 4.53215 8.96721 4.06974 5.21987C4.05382 5.07339 4.06777 4.9252 4.11074 4.78426C4.15371 4.64332 4.2248 4.51256 4.31974 4.39987C4.41345 4.2932 4.5288 4.20771 4.65811 4.14909C4.78743 4.09046 4.92775 4.06005 5.06974 4.05987H8.06974C8.30228 4.05469 8.52936 4.13075 8.71188 4.27494C8.8944 4.41913 9.02095 4.62244 9.06974 4.84987C9.10974 5.1232 9.15974 5.3932 9.21974 5.65987C9.33526 6.18701 9.48899 6.70505 9.67974 7.20987L8.27974 7.85987C8.16003 7.91479 8.05236 7.99282 7.96289 8.08946C7.87343 8.18611 7.80394 8.29948 7.75841 8.42306C7.71288 8.54664 7.69221 8.678 7.69758 8.80959C7.70296 8.94118 7.73428 9.07041 7.78973 9.18987C9.22894 12.2726 11.707 14.7507 14.7897 16.1899C15.0332 16.2899 15.3063 16.2899 15.5497 16.1899C15.6744 16.1453 15.7891 16.0763 15.8869 15.9871C15.9848 15.8978 16.0639 15.79 16.1197 15.6699L16.7397 14.2699C17.2567 14.4547 17.7843 14.6084 18.3197 14.7299C18.5864 14.7899 18.8564 14.8399 19.1297 14.8799C19.3572 14.9287 19.5605 15.0552 19.7047 15.2377C19.8489 15.4202 19.9249 15.6473 19.9197 15.8799L19.9397 18.9999Z" fill="#FFF323"/>
</svg>
