<svg width="44" height="43" viewBox="0 0 44 43" fill="none" xmlns="http://www.w3.org/2000/svg">
<path d="M35.37 20.8738L33.9073 29.1413C33.7269 30.0546 32.9884 30.6099 32.1367 30.6203H10.8124L10.3891 32.9716H30.7125C31.7827 33.0517 32.5086 33.7986 32.5216 34.754C32.4438 35.8062 31.6858 36.5233 30.7125 36.5364H8.23353C7.0178 36.4287 6.29288 35.4739 6.42443 34.4127L7.3867 29.255L5.92403 14.768L1.76697 13.4787C0.751101 13.0813 0.336479 12.1758 0.573742 11.2411C0.96825 10.267 1.91355 9.82199 2.84473 10.0655L8.15654 11.7342C8.87213 11.9985 9.28379 12.5756 9.38825 13.2511L9.69617 16.1334L33.7918 18.788C34.8989 19.0243 35.4999 19.8883 35.37 20.8738ZM13.7414 40.279C13.7414 41.7817 12.505 43 10.9797 43C9.45441 43 8.21795 41.7817 8.21795 40.279C8.21795 38.7762 9.45443 37.5579 10.9797 37.5579C12.505 37.5579 13.7414 38.7762 13.7414 40.279ZM30.229 40.279C30.229 41.7817 28.9925 43 27.4672 43C25.9419 43 24.7055 41.7817 24.7055 40.279C24.7055 38.7762 25.9419 37.5579 27.4672 37.5579C28.9925 37.5579 30.229 38.7762 30.229 40.279Z" fill="#31508C"/>
<circle cx="31.5" cy="12.5" r="11.5" fill="#FFF323" stroke="white" stroke-width="2"/>
<path d="M27.372 15.056V14.144L31.716 8.48H32.892V14.108H34.14V15.056H32.892V17H31.788V15.056H27.372ZM31.86 9.812L28.524 14.108H31.86V9.812Z" fill="white"/>
</svg>
