<svg width="86" height="111" viewBox="0 0 86 111" fill="none" xmlns="http://www.w3.org/2000/svg">
<path d="M25.2704 28.352C25.2704 30.016 24.8384 31.584 23.9744 33.056C23.1424 34.496 21.8944 35.696 20.2304 36.656C18.5984 37.584 16.6624 38.128 14.4224 38.288V42.176H11.3504V38.24C8.15038 37.952 5.57438 36.992 3.62238 35.36C1.67038 33.696 0.662382 31.456 0.598382 28.64H7.79838C7.99038 30.944 9.17438 32.336 11.3504 32.816V23.648C9.04638 23.072 7.19038 22.496 5.78238 21.92C4.37438 21.344 3.15838 20.416 2.13438 19.136C1.11038 17.856 0.598382 16.112 0.598382 13.904C0.598382 11.12 1.59038 8.848 3.57438 7.088C5.59038 5.328 8.18238 4.32 11.3504 4.064V0.175998H14.4224V4.064C17.4944 4.32 19.9424 5.248 21.7664 6.848C23.6224 8.448 24.6624 10.656 24.8864 13.472H17.6384C17.5424 12.544 17.2064 11.744 16.6304 11.072C16.0864 10.368 15.3504 9.872 14.4224 9.584V18.656C16.8224 19.264 18.7104 19.856 20.0864 20.432C21.4944 20.976 22.7104 21.888 23.7344 23.168C24.7584 24.416 25.2704 26.144 25.2704 28.352ZM7.60638 13.568C7.60638 14.624 7.92638 15.488 8.56638 16.16C9.20638 16.8 10.1344 17.328 11.3504 17.744V9.44C10.1984 9.6 9.28638 10.032 8.61438 10.736C7.94238 11.44 7.60638 12.384 7.60638 13.568ZM14.4224 32.912C15.6384 32.688 16.5824 32.192 17.2544 31.424C17.9584 30.656 18.3104 29.728 18.3104 28.64C18.3104 27.584 17.9744 26.736 17.3024 26.096C16.6304 25.456 15.6704 24.928 14.4224 24.512V32.912ZM34.1166 30.416C37.1886 27.856 39.6366 25.728 41.4606 24.032C43.2846 22.304 44.8046 20.512 46.0206 18.656C47.2366 16.8 47.8446 14.976 47.8446 13.184C47.8446 11.552 47.4606 10.272 46.6926 9.344C45.9246 8.416 44.7406 7.952 43.1406 7.952C41.5406 7.952 40.3086 8.496 39.4446 9.584C38.5806 10.64 38.1326 12.096 38.1006 13.952H31.5726C31.7006 10.112 32.8366 7.2 34.9806 5.216C37.1566 3.232 39.9086 2.24 43.2366 2.24C46.8846 2.24 49.6846 3.216 51.6366 5.168C53.5886 7.088 54.5646 9.632 54.5646 12.8C54.5646 15.296 53.8926 17.68 52.5486 19.952C51.2046 22.224 49.6686 24.208 47.9406 25.904C46.2126 27.568 43.9566 29.584 41.1726 31.952H55.3326V37.52H31.6206V32.528L34.1166 30.416ZM65.4231 19.472C62.2231 17.808 60.6231 15.232 60.6231 11.744C60.6231 10.016 61.0551 8.448 61.9191 7.04C62.8151 5.6 64.1431 4.464 65.9031 3.632C67.6951 2.768 69.8711 2.336 72.4311 2.336C74.9911 2.336 77.1511 2.768 78.9111 3.632C80.7031 4.464 82.0311 5.6 82.8951 7.04C83.7911 8.448 84.2391 10.016 84.2391 11.744C84.2391 13.504 83.8071 15.056 82.9431 16.4C82.0791 17.712 80.9271 18.736 79.4871 19.472C81.2471 20.24 82.6231 21.36 83.6151 22.832C84.6071 24.304 85.1031 26.048 85.1031 28.064C85.1031 30.24 84.5431 32.144 83.4231 33.776C82.3351 35.376 80.8311 36.608 78.9111 37.472C76.9911 38.336 74.8311 38.768 72.4311 38.768C70.0311 38.768 67.8711 38.336 65.9511 37.472C64.0631 36.608 62.5591 35.376 61.4391 33.776C60.3511 32.144 59.8071 30.24 59.8071 28.064C59.8071 26.048 60.3031 24.304 61.2951 22.832C62.2871 21.328 63.6631 20.208 65.4231 19.472ZM77.7111 12.704C77.7111 11.136 77.2311 9.92 76.2711 9.056C75.3431 8.192 74.0631 7.76 72.4311 7.76C70.8311 7.76 69.5511 8.192 68.5911 9.056C67.6631 9.92 67.1991 11.152 67.1991 12.752C67.1991 14.192 67.6791 15.344 68.6391 16.208C69.6311 17.072 70.8951 17.504 72.4311 17.504C73.9671 17.504 75.2311 17.072 76.2231 16.208C77.2151 15.312 77.7111 14.144 77.7111 12.704ZM72.4311 22.4C70.6071 22.4 69.1191 22.864 67.9671 23.792C66.8471 24.72 66.2871 26.048 66.2871 27.776C66.2871 29.376 66.8311 30.688 67.9191 31.712C69.0391 32.704 70.5431 33.2 72.4311 33.2C74.3191 33.2 75.8071 32.688 76.8951 31.664C77.9831 30.64 78.5271 29.344 78.5271 27.776C78.5271 26.08 77.9671 24.768 76.8471 23.84C75.7271 22.88 74.2551 22.4 72.4311 22.4ZM4.34238 110.336C3.12638 110.336 2.11838 109.968 1.31838 109.232C0.550382 108.464 0.166382 107.52 0.166382 106.4C0.166382 105.28 0.550382 104.352 1.31838 103.616C2.11838 102.848 3.12638 102.464 4.34238 102.464C5.52638 102.464 6.50238 102.848 7.27038 103.616C8.03838 104.352 8.42238 105.28 8.42238 106.4C8.42238 107.52 8.03838 108.464 7.27038 109.232C6.50238 109.968 5.52638 110.336 4.34238 110.336ZM13.0671 92.048C13.0671 86.512 14.0591 82.176 16.0431 79.04C18.0591 75.904 21.3871 74.336 26.0271 74.336C30.6671 74.336 33.9791 75.904 35.9631 79.04C37.9791 82.176 38.9871 86.512 38.9871 92.048C38.9871 97.616 37.9791 101.984 35.9631 105.152C33.9791 108.32 30.6671 109.904 26.0271 109.904C21.3871 109.904 18.0591 108.32 16.0431 105.152C14.0591 101.984 13.0671 97.616 13.0671 92.048ZM32.3631 92.048C32.3631 89.68 32.2031 87.696 31.8831 86.096C31.5951 84.464 30.9871 83.136 30.0591 82.112C29.1631 81.088 27.8191 80.576 26.0271 80.576C24.2351 80.576 22.8751 81.088 21.9471 82.112C21.0511 83.136 20.4431 84.464 20.1231 86.096C19.8351 87.696 19.6911 89.68 19.6911 92.048C19.6911 94.48 19.8351 96.528 20.1231 98.192C20.4111 99.824 21.0191 101.152 21.9471 102.176C22.8751 103.168 24.2351 103.664 26.0271 103.664C27.8191 103.664 29.1791 103.168 30.1071 102.176C31.0351 101.152 31.6431 99.824 31.9311 98.192C32.2191 96.528 32.3631 94.48 32.3631 92.048ZM44.0984 92.048C44.0984 86.512 45.0904 82.176 47.0744 79.04C49.0904 75.904 52.4184 74.336 57.0584 74.336C61.6984 74.336 65.0104 75.904 66.9944 79.04C69.0104 82.176 70.0184 86.512 70.0184 92.048C70.0184 97.616 69.0104 101.984 66.9944 105.152C65.0104 108.32 61.6984 109.904 57.0584 109.904C52.4184 109.904 49.0904 108.32 47.0744 105.152C45.0904 101.984 44.0984 97.616 44.0984 92.048ZM63.3944 92.048C63.3944 89.68 63.2344 87.696 62.9144 86.096C62.6264 84.464 62.0184 83.136 61.0904 82.112C60.1944 81.088 58.8504 80.576 57.0584 80.576C55.2664 80.576 53.9064 81.088 52.9784 82.112C52.0824 83.136 51.4744 84.464 51.1544 86.096C50.8664 87.696 50.7224 89.68 50.7224 92.048C50.7224 94.48 50.8664 96.528 51.1544 98.192C51.4424 99.824 52.0504 101.152 52.9784 102.176C53.9064 103.168 55.2664 103.664 57.0584 103.664C58.8504 103.664 60.2104 103.168 61.1384 102.176C62.0664 101.152 62.6744 99.824 62.9624 98.192C63.2504 96.528 63.3944 94.48 63.3944 92.048Z" fill="#31508C"/>
</svg>
