<svg width="20" height="17" viewBox="0 0 20 17" fill="none" xmlns="http://www.w3.org/2000/svg">
<path d="M17 0.5H3C2.20435 0.5 1.44129 0.816071 0.87868 1.37868C0.316071 1.94129 0 2.70435 0 3.5V13.5C0 14.2956 0.316071 15.0587 0.87868 15.6213C1.44129 16.1839 2.20435 16.5 3 16.5H17C17.7956 16.5 18.5587 16.1839 19.1213 15.6213C19.6839 15.0587 20 14.2956 20 13.5V3.5C20 2.70435 19.6839 1.94129 19.1213 1.37868C18.5587 0.816071 17.7956 0.5 17 0.5ZM16.427 2.5L10.6 7.3C10.4335 7.42669 10.2312 7.4976 10.022 7.50263C9.81285 7.50766 9.60742 7.44655 9.435 7.328L3.573 2.5H16.427ZM17 14.5H3C2.73478 14.5 2.48043 14.3946 2.29289 14.2071C2.10536 14.0196 2 13.7652 2 13.5V3.8L8.2 8.9C8.71593 9.28632 9.34347 9.49444 9.988 9.493C10.6551 9.49199 11.3037 9.27403 11.836 8.872L18 3.8V13.5C18 13.7652 17.8946 14.0196 17.7071 14.2071C17.5196 14.3946 17.2652 14.5 17 14.5Z" fill="#FFF323"/>
</svg>
