<svg width="20" height="15" viewBox="0 0 20 15" fill="none" xmlns="http://www.w3.org/2000/svg">
<path d="M13.0751 7.40314C13.0751 8.23131 12.7473 9.02556 12.1637 9.61116C11.5801 10.1968 10.7886 10.5258 9.96335 10.5258C9.13805 10.5258 8.34656 10.1968 7.76298 9.61116C7.17941 9.02556 6.85156 8.23131 6.85156 7.40314C6.85156 6.57497 7.17941 5.78072 7.76298 5.19511C8.34656 4.60951 9.13805 4.28052 9.96335 4.28052C10.7886 4.28052 11.5801 4.60951 12.1637 5.19511C12.7473 5.78072 13.0751 6.57497 13.0751 7.40314Z" fill="#31508C"/>
<path fill-rule="evenodd" clip-rule="evenodd" d="M0.00585938 7.4032C0.00585938 7.4032 3.74003 0.533447 9.96365 0.533447C16.1873 0.533447 19.9214 7.4032 19.9214 7.4032C19.9214 7.4032 16.1873 14.2729 9.96365 14.2729C3.74003 14.2729 0.00585938 7.4032 0.00585938 7.4032ZM9.96365 11.7749C11.1191 11.7749 12.2272 11.3143 13.0442 10.4944C13.8612 9.67458 14.3202 8.56263 14.3202 7.4032C14.3202 6.24376 13.8612 5.13181 13.0442 4.31197C12.2272 3.49212 11.1191 3.03154 9.96365 3.03154C8.80823 3.03154 7.70013 3.49212 6.88312 4.31197C6.06611 5.13181 5.60712 6.24376 5.60712 7.4032C5.60712 8.56263 6.06611 9.67458 6.88312 10.4944C7.70013 11.3143 8.80823 11.7749 9.96365 11.7749Z" fill="#31508C"/>
</svg>
