<svg width="194" height="63" viewBox="0 0 194 63" fill="none" xmlns="http://www.w3.org/2000/svg">
<rect x="0.484741" width="193.515" height="63" rx="12" fill="#31508C"/>
<path d="M70.038 35.166C71.586 35.166 72.87 35.55 73.89 36.318C74.91 37.074 75.564 38.1 75.852 39.396H73.188C72.936 38.82 72.534 38.364 71.982 38.028C71.442 37.68 70.8 37.506 70.056 37.506C69.324 37.506 68.676 37.674 68.112 38.01C67.548 38.346 67.11 38.826 66.798 39.45C66.486 40.074 66.33 40.806 66.33 41.646C66.33 42.978 66.684 44.016 67.392 44.76C68.112 45.504 69.09 45.876 70.326 45.876C71.238 45.876 72.018 45.606 72.666 45.066C73.326 44.526 73.752 43.776 73.944 42.816H69.642V40.998H76.068V43.446C75.888 44.286 75.534 45.06 75.006 45.768C74.49 46.476 73.806 47.046 72.954 47.478C72.114 47.898 71.148 48.108 70.056 48.108C68.808 48.108 67.704 47.838 66.744 47.298C65.796 46.746 65.058 45.984 64.53 45.012C64.014 44.028 63.756 42.906 63.756 41.646C63.756 40.386 64.014 39.27 64.53 38.298C65.058 37.314 65.796 36.546 66.744 35.994C67.692 35.442 68.79 35.166 70.038 35.166ZM82.5764 37.902C83.5484 37.902 84.4184 38.106 85.1864 38.514C85.9664 38.922 86.5784 39.516 87.0224 40.296C87.4664 41.064 87.6884 41.97 87.6884 43.014C87.6884 44.058 87.4664 44.964 87.0224 45.732C86.5784 46.5 85.9664 47.094 85.1864 47.514C84.4184 47.922 83.5484 48.126 82.5764 48.126C81.6044 48.126 80.7284 47.922 79.9484 47.514C79.1804 47.094 78.5744 46.5 78.1304 45.732C77.6864 44.964 77.4644 44.058 77.4644 43.014C77.4644 41.97 77.6864 41.064 78.1304 40.296C78.5744 39.516 79.1804 38.922 79.9484 38.514C80.7284 38.106 81.6044 37.902 82.5764 37.902ZM82.5764 40.098C81.8684 40.098 81.2684 40.35 80.7764 40.854C80.2844 41.346 80.0384 42.066 80.0384 43.014C80.0384 43.962 80.2844 44.688 80.7764 45.192C81.2684 45.684 81.8684 45.93 82.5764 45.93C83.2844 45.93 83.8844 45.684 84.3764 45.192C84.8684 44.688 85.1144 43.962 85.1144 43.014C85.1144 42.066 84.8684 41.346 84.3764 40.854C83.8844 40.35 83.2844 40.098 82.5764 40.098ZM94.0901 37.902C95.0621 37.902 95.9321 38.106 96.7001 38.514C97.4801 38.922 98.0921 39.516 98.5361 40.296C98.9801 41.064 99.2021 41.97 99.2021 43.014C99.2021 44.058 98.9801 44.964 98.5361 45.732C98.0921 46.5 97.4801 47.094 96.7001 47.514C95.9321 47.922 95.0621 48.126 94.0901 48.126C93.1181 48.126 92.2421 47.922 91.4621 47.514C90.6941 47.094 90.0881 46.5 89.6441 45.732C89.2001 44.964 88.9781 44.058 88.9781 43.014C88.9781 41.97 89.2001 41.064 89.6441 40.296C90.0881 39.516 90.6941 38.922 91.4621 38.514C92.2421 38.106 93.1181 37.902 94.0901 37.902ZM94.0901 40.098C93.3821 40.098 92.7821 40.35 92.2901 40.854C91.7981 41.346 91.5521 42.066 91.5521 43.014C91.5521 43.962 91.7981 44.688 92.2901 45.192C92.7821 45.684 93.3821 45.93 94.0901 45.93C94.7981 45.93 95.3981 45.684 95.8901 45.192C96.3821 44.688 96.6281 43.962 96.6281 43.014C96.6281 42.066 96.3821 41.346 95.8901 40.854C95.3981 40.35 94.7981 40.098 94.0901 40.098ZM104.902 37.902C105.742 37.902 106.462 38.1 107.062 38.496C107.662 38.892 108.088 39.426 108.34 40.098V38.028H110.86V48.036C110.86 48.96 110.674 49.788 110.302 50.52C109.942 51.264 109.396 51.846 108.664 52.266C107.944 52.686 107.068 52.896 106.036 52.896C104.596 52.896 103.432 52.554 102.544 51.87C101.656 51.186 101.116 50.256 100.924 49.08H103.426C103.57 49.584 103.846 49.974 104.254 50.25C104.674 50.538 105.208 50.682 105.856 50.682C106.6 50.682 107.2 50.46 107.656 50.016C108.112 49.584 108.34 48.924 108.34 48.036V45.912C108.088 46.584 107.662 47.124 107.062 47.532C106.462 47.928 105.742 48.126 104.902 48.126C104.062 48.126 103.306 47.922 102.634 47.514C101.962 47.106 101.434 46.518 101.05 45.75C100.678 44.97 100.492 44.058 100.492 43.014C100.492 41.97 100.678 41.064 101.05 40.296C101.434 39.516 101.962 38.922 102.634 38.514C103.306 38.106 104.062 37.902 104.902 37.902ZM105.694 40.116C104.902 40.116 104.266 40.374 103.786 40.89C103.306 41.406 103.066 42.114 103.066 43.014C103.066 43.914 103.306 44.622 103.786 45.138C104.266 45.642 104.902 45.894 105.694 45.894C106.462 45.894 107.092 45.636 107.584 45.12C108.088 44.592 108.34 43.89 108.34 43.014C108.34 42.126 108.088 41.424 107.584 40.908C107.092 40.38 106.462 40.116 105.694 40.116ZM115.698 34.68V48H113.16V34.68H115.698ZM127.372 42.636C127.372 42.888 127.342 43.176 127.282 43.5H119.974C120.01 44.388 120.25 45.042 120.694 45.462C121.138 45.882 121.69 46.092 122.35 46.092C122.938 46.092 123.424 45.948 123.808 45.66C124.204 45.372 124.456 44.982 124.564 44.49H127.246C127.114 45.186 126.832 45.81 126.4 46.362C125.968 46.914 125.41 47.346 124.726 47.658C124.054 47.97 123.304 48.126 122.476 48.126C121.504 48.126 120.64 47.922 119.884 47.514C119.128 47.094 118.54 46.5 118.12 45.732C117.7 44.964 117.49 44.058 117.49 43.014C117.49 41.97 117.7 41.064 118.12 40.296C118.54 39.516 119.128 38.922 119.884 38.514C120.64 38.106 121.504 37.902 122.476 37.902C123.46 37.902 124.318 38.106 125.05 38.514C125.794 38.922 126.364 39.486 126.76 40.206C127.168 40.914 127.372 41.724 127.372 42.636ZM124.816 42.384C124.852 41.568 124.636 40.95 124.168 40.53C123.712 40.11 123.148 39.9 122.476 39.9C121.792 39.9 121.216 40.11 120.748 40.53C120.28 40.95 120.022 41.568 119.974 42.384H124.816ZM135.631 43.284V48H133.093V35.292H137.719C139.219 35.292 140.347 35.652 141.103 36.372C141.871 37.092 142.255 38.07 142.255 39.306C142.255 40.518 141.859 41.484 141.067 42.204C140.287 42.924 139.171 43.284 137.719 43.284H135.631ZM137.449 41.25C138.937 41.25 139.681 40.602 139.681 39.306C139.681 38.67 139.507 38.184 139.159 37.848C138.811 37.512 138.241 37.344 137.449 37.344H135.631V41.25H137.449ZM146.442 34.68V48H143.904V34.68H146.442ZM152.644 37.902C153.484 37.902 154.204 38.1 154.804 38.496C155.404 38.892 155.83 39.426 156.082 40.098V38.028H158.602V48H156.082V45.912C155.83 46.584 155.404 47.124 154.804 47.532C154.204 47.928 153.484 48.126 152.644 48.126C151.804 48.126 151.048 47.922 150.376 47.514C149.704 47.106 149.176 46.518 148.792 45.75C148.42 44.97 148.234 44.058 148.234 43.014C148.234 41.97 148.42 41.064 148.792 40.296C149.176 39.516 149.704 38.922 150.376 38.514C151.048 38.106 151.804 37.902 152.644 37.902ZM153.436 40.116C152.644 40.116 152.008 40.374 151.528 40.89C151.048 41.406 150.808 42.114 150.808 43.014C150.808 43.914 151.048 44.622 151.528 45.138C152.008 45.642 152.644 45.894 153.436 45.894C154.204 45.894 154.834 45.636 155.326 45.12C155.83 44.592 156.082 43.89 156.082 43.014C156.082 42.126 155.83 41.424 155.326 40.908C154.834 40.38 154.204 40.116 153.436 40.116ZM162.612 38.028L165.33 44.796L167.85 38.028H170.64L164.538 52.752H161.73L163.98 47.712L159.786 38.028H162.612Z" fill="white"/>
<path d="M67.323 12.168C68.225 12.168 68.9803 12.3917 69.589 12.839C70.205 13.2863 70.6193 13.895 70.832 14.665H69.776C69.5927 14.1957 69.2847 13.818 68.852 13.532C68.4267 13.246 67.9207 13.103 67.334 13.103C66.806 13.103 66.333 13.2277 65.915 13.477C65.497 13.719 65.167 14.0673 64.925 14.522C64.6903 14.9767 64.573 15.512 64.573 16.128C64.573 16.7587 64.694 17.305 64.936 17.767C65.178 18.2217 65.5117 18.5737 65.937 18.823C66.3697 19.065 66.8647 19.186 67.422 19.186C67.8987 19.186 68.335 19.0833 68.731 18.878C69.127 18.6727 69.4497 18.3757 69.699 17.987C69.9557 17.591 70.1097 17.129 70.161 16.601H67.114V15.853H71.008V16.777C70.942 17.393 70.7513 17.9503 70.436 18.449C70.1207 18.9477 69.6953 19.3437 69.16 19.637C68.6247 19.9303 68.016 20.077 67.334 20.077C66.586 20.077 65.926 19.912 65.354 19.582C64.782 19.2447 64.3347 18.779 64.012 18.185C63.6967 17.5837 63.539 16.898 63.539 16.128C63.539 15.358 63.6967 14.676 64.012 14.082C64.3347 13.4807 64.782 13.0113 65.354 12.674C65.926 12.3367 66.5823 12.168 67.323 12.168ZM77.9195 16.645C77.9195 16.8577 77.9049 17.041 77.8755 17.195H73.0465C73.0685 17.8843 73.2629 18.4013 73.6295 18.746C74.0035 19.0907 74.4582 19.263 74.9935 19.263C75.4775 19.263 75.8809 19.142 76.2035 18.9C76.5335 18.6507 76.7352 18.3207 76.8085 17.91H77.8755C77.8022 18.328 77.6372 18.702 77.3805 19.032C77.1312 19.362 76.8049 19.6187 76.4015 19.802C75.9982 19.9853 75.5435 20.077 75.0375 20.077C74.4582 20.077 73.9449 19.9523 73.4975 19.703C73.0502 19.4537 72.6982 19.098 72.4415 18.636C72.1922 18.1667 72.0675 17.6167 72.0675 16.986C72.0675 16.3553 72.1922 15.8053 72.4415 15.336C72.6982 14.8667 73.0502 14.5073 73.4975 14.258C73.9449 14.0087 74.4582 13.884 75.0375 13.884C75.6242 13.884 76.1339 14.0087 76.5665 14.258C77.0065 14.5073 77.3402 14.841 77.5675 15.259C77.8022 15.677 77.9195 16.139 77.9195 16.645ZM76.9075 16.711C76.9295 16.2637 76.8562 15.8897 76.6875 15.589C76.5189 15.2883 76.2879 15.0647 75.9945 14.918C75.7012 14.7713 75.3822 14.698 75.0375 14.698C74.4875 14.698 74.0255 14.8703 73.6515 15.215C73.2775 15.5523 73.0759 16.051 73.0465 16.711H76.9075ZM82.1108 19.12V20H81.3628C80.7468 20 80.2848 19.8533 79.9768 19.56C79.6761 19.2667 79.5258 18.7753 79.5258 18.086V14.83H78.6238V13.961H79.5258V12.454H80.5378V13.961H82.0998V14.83H80.5378V18.108C80.5378 18.4967 80.6074 18.7643 80.7468 18.911C80.8934 19.0503 81.1428 19.12 81.4948 19.12H82.1108ZM87.0511 12.245V20H86.0501V12.245H87.0511ZM91.8394 13.862C92.5434 13.862 93.1118 14.0893 93.5444 14.544C93.9771 14.9913 94.1934 15.6403 94.1934 16.491V20H93.1924V16.579C93.1924 15.9777 93.0384 15.5157 92.7304 15.193C92.4224 14.8703 92.0044 14.709 91.4764 14.709C90.9264 14.709 90.4864 14.8887 90.1564 15.248C89.8264 15.6 89.6614 16.117 89.6614 16.799V20H88.6604V13.961H89.6614V15.391C89.8154 14.8997 90.0868 14.522 90.4754 14.258C90.8714 13.994 91.3261 13.862 91.8394 13.862ZM102 12.146C102.718 12.146 103.364 12.3147 103.936 12.652C104.515 12.9893 104.97 13.4623 105.3 14.071C105.63 14.6723 105.795 15.3543 105.795 16.117C105.795 16.8797 105.63 17.5653 105.3 18.174C104.97 18.7753 104.515 19.2447 103.936 19.582C103.364 19.9193 102.718 20.088 102 20.088C101.281 20.088 100.628 19.9193 100.042 19.582C99.4622 19.2447 99.0076 18.7753 98.6776 18.174C98.3476 17.5653 98.1826 16.8797 98.1826 16.117C98.1826 15.3543 98.3476 14.6723 98.6776 14.071C99.0076 13.4623 99.4622 12.9893 100.042 12.652C100.628 12.3147 101.281 12.146 102 12.146ZM102 13.081C101.464 13.081 100.984 13.2057 100.559 13.455C100.141 13.697 99.8106 14.049 99.5686 14.511C99.3339 14.9657 99.2166 15.501 99.2166 16.117C99.2166 16.7257 99.3339 17.261 99.5686 17.723C99.8106 18.185 100.141 18.5407 100.559 18.79C100.984 19.032 101.464 19.153 102 19.153C102.528 19.153 103.001 19.0283 103.419 18.779C103.844 18.5297 104.174 18.1777 104.409 17.723C104.651 17.261 104.772 16.7257 104.772 16.117C104.772 15.501 104.651 14.9657 104.409 14.511C104.174 14.049 103.844 13.697 103.419 13.455C103.001 13.2057 102.528 13.081 102 13.081ZM110.327 13.862C111.031 13.862 111.599 14.0893 112.032 14.544C112.464 14.9913 112.681 15.6403 112.681 16.491V20H111.68V16.579C111.68 15.9777 111.526 15.5157 111.218 15.193C110.91 14.8703 110.492 14.709 109.964 14.709C109.414 14.709 108.974 14.8887 108.644 15.248C108.314 15.6 108.149 16.117 108.149 16.799V20H107.148V13.961H108.149V15.391C108.303 14.8997 108.574 14.522 108.963 14.258C109.359 13.994 109.813 13.862 110.327 13.862Z" fill="white"/>
<path d="M35.5881 32.0358L25.1709 20.5682L38.4248 28.9215L35.5881 32.0358ZM22.4521 19.8945C21.8385 20.2469 21.4279 20.8895 21.4279 21.7238V44.5916C21.4279 45.4259 21.8385 46.0685 22.4521 46.4208L34.5638 33.1551L22.4521 19.8945ZM42.5218 31.585L39.7417 29.8179L36.6406 33.1603L39.7417 36.5026L42.5785 34.7356C43.4281 33.9946 43.4281 32.326 42.5218 31.585ZM25.1709 45.7524L38.4248 37.3991L35.5881 34.2848L25.1709 45.7524Z" fill="white"/>
</svg>
