<svg width="14" height="18" viewBox="0 0 14 18" fill="none" xmlns="http://www.w3.org/2000/svg">
<path d="M6.97351 0.410889C4.6857 0.410889 2.82442 2.27863 2.82442 4.57439V6.23979H1.9946C1.07931 6.23979 0.334961 6.98672 0.334961 7.90519V15.3995C0.334961 16.3179 1.07931 17.0649 1.9946 17.0649H11.9524C12.8677 17.0649 13.6121 16.3179 13.6121 15.3995V7.90519C13.6121 6.98672 12.8677 6.23979 11.9524 6.23979H11.1226V4.57439C11.1226 2.27863 9.26132 0.410889 6.97351 0.410889ZM4.48405 4.57439C4.48405 3.1971 5.60099 2.07629 6.97351 2.07629C8.34603 2.07629 9.46297 3.1971 9.46297 4.57439V6.23979H4.48405V4.57439ZM11.9541 15.3995H7.80333V13.5026C8.29707 13.2136 8.63315 12.6824 8.63315 12.0687C8.63315 11.1502 7.8888 10.4033 6.97351 10.4033C6.05822 10.4033 5.31387 11.1502 5.31387 12.0687C5.31387 12.6815 5.64995 13.2136 6.14369 13.5026V15.3995H1.9946V7.90519H11.9524L11.9541 15.3995V15.3995Z" fill="#31508C"/>
</svg>
