<svg width="16" height="17" viewBox="0 0 16 17" fill="none" xmlns="http://www.w3.org/2000/svg">
<path d="M8.15196 0.977051C5.86415 0.977051 4.00287 2.8448 4.00287 5.14055C4.00287 7.4363 5.86415 9.30404 8.15196 9.30404C10.4398 9.30404 12.3011 7.4363 12.3011 5.14055C12.3011 2.8448 10.4398 0.977051 8.15196 0.977051ZM8.15196 7.63865C6.77944 7.63865 5.66251 6.51783 5.66251 5.14055C5.66251 3.76326 6.77944 2.64245 8.15196 2.64245C9.52448 2.64245 10.6414 3.76326 10.6414 5.14055C10.6414 6.51783 9.52448 7.63865 8.15196 7.63865ZM15.6203 16.7983V15.9656C15.6203 12.7523 13.0139 10.1367 9.8116 10.1367H6.49232C3.28922 10.1367 0.683594 12.7523 0.683594 15.9656V16.7983H2.34323V15.9656C2.34323 13.6699 4.20451 11.8021 6.49232 11.8021H9.8116C12.0994 11.8021 13.9607 13.6699 13.9607 15.9656V16.7983H15.6203Z" fill="#31508C"/>
</svg>
