<svg width="64" height="74" viewBox="0 0 64 74" fill="none" xmlns="http://www.w3.org/2000/svg">
<ellipse cx="37.0761" cy="26.5" rx="26.4083" ry="26.5" fill="#FFF323"/>
<path d="M46.98 24.9899C46.162 24.1779 45.419 23.4379 44.613 22.7359C33.064 12.3949 23.595 14.6049 19.293 17.0219C18.322 17.5669 17.265 18.3219 16.206 19.1939C15.5 18.6719 14.655 18.5899 14.199 19.0409L13.905 19.3319C12.228 18.9539 10.462 19.0079 8.769 19.7039C3.94 21.6869 2 26.5339 2 32.6689C2 43.0869 8.071 50.7199 11.43 56.1029C13.638 59.6399 16.489 64.5639 16.489 67.6659H18.88C18.88 63.8909 15.863 58.6979 13.464 54.8559C10.097 49.4609 4.391 42.4109 4.392 32.6669C4.392 27.5239 5.777 23.4929 9.684 21.8899C10.3403 21.623 11.0406 21.4806 11.749 21.4699L11.602 21.6149C11.147 22.0689 11.23 22.9049 11.757 23.6049C10.877 24.6549 10.115 25.7019 9.565 26.6659C7.127 30.9299 4.897 40.3159 15.329 51.7649C16.047 52.5739 16.791 53.3069 17.603 54.1119C36.001 72.3499 50.145 71.3269 57.246 64.2879C64.347 57.2489 65.379 43.2289 46.98 24.9899ZM41.672 22.7849C38.393 24.2429 35.387 26.5779 32.471 28.8829L21.559 18.0649C26.104 15.9899 32.952 15.5389 41.672 22.7849ZM19.749 19.0449L30.924 30.1219C29.4486 31.3556 28.0254 32.6504 26.658 34.0029C25.3069 35.3454 24.0128 36.744 22.779 38.1949L11.603 27.1169C13.386 24.3509 16.956 20.8109 19.749 19.0449ZM15.376 48.8499C8.068 40.2069 8.522 33.4189 10.616 28.9119L21.528 39.7279C19.205 42.6179 16.85 45.5989 15.376 48.8499ZM55.848 62.8999C47.65 71.0259 33.532 67.1289 19.001 52.7249C18.266 51.9973 17.5458 51.2549 16.841 50.4979C18.218 47.0119 20.985 43.5509 23.518 40.3999C24.72 38.9059 26.484 36.9489 28.075 35.3719C29.658 33.8029 31.634 32.0519 33.142 30.8599C36.328 28.3399 39.81 25.6009 43.335 24.2359C44.054 24.8879 44.925 25.7249 45.581 26.3769C60.111 40.7799 64.045 54.7739 55.848 62.8999Z" fill="black"/>
<g clip-path="url(#clip0_29_37)">
<path d="M47.2133 41.5552L46.5829 43.6092L48.637 44.2396L49.9127 40.0827C50.0928 39.4958 50.0464 38.9375 49.7734 38.4078C49.5004 37.8781 49.0773 37.5253 48.5041 37.3494L38.3145 34.2758C37.7413 34.0999 37.1956 34.1465 36.6775 34.4155C36.1594 34.6846 35.8102 35.1126 35.6301 35.6994L34.3544 39.8564L36.4084 40.4867L37.0388 38.4327L47.2133 41.5552ZM34.9557 51.0107L36.839 49.9833L34.6114 45.6609L38.8802 43.3322L37.8974 41.4253L31.7453 44.7814L34.9557 51.0107ZM40.8993 51.2294L41.8821 53.1363L48.0342 49.7803L44.8238 43.551L42.9405 44.5783L45.1681 48.9007L40.8993 51.2294ZM32.5662 53.0064L33.1966 50.9524L31.1425 50.3221L29.8668 54.479C29.6867 55.0659 29.7331 55.6241 30.0061 56.1538C30.2791 56.6835 30.7022 57.0364 31.2754 57.2123L41.45 60.3348C42.0232 60.5107 42.5714 60.456 43.0945 60.1706C43.6176 59.8852 43.9693 59.4491 44.1494 58.8622L45.4251 54.7053L43.3711 54.0749L42.7407 56.1289L32.5662 53.0064Z" fill="#31508C"/>
</g>
<defs>
<clipPath id="clip0_29_37">
<rect width="17.1885" height="24.555" fill="white" transform="matrix(-0.955993 -0.293388 -0.293388 0.955993 51.6362 38.043)"/>
</clipPath>
</defs>
</svg>
