<svg width="32" height="32" viewBox="0 0 32 32" fill="none" xmlns="http://www.w3.org/2000/svg">
<path d="M20.3529 7.03223C18.8245 7.03162 17.3217 7.42422 15.9889 8.17229C14.6237 7.40924 13.0827 7.01639 11.5188 7.03273C9.95492 7.04907 8.42247 7.47401 7.0735 8.26542C5.72453 9.05682 4.60592 10.1872 3.82865 11.5443C3.05138 12.9015 2.64246 14.4383 2.64246 16.0023C2.64246 17.5663 3.05138 19.1031 3.82865 20.4602C4.60592 21.8174 5.72453 22.9478 7.0735 23.7392C8.42247 24.5306 9.95492 24.9555 11.5188 24.9719C13.0827 24.9882 14.6237 24.5953 15.9889 23.8323C17.1854 24.4993 18.5189 24.8832 19.8869 24.9548C21.2549 25.0263 22.6211 24.7834 23.8806 24.2448C25.1402 23.7063 26.2596 22.8863 27.153 21.8478C28.0463 20.8094 28.6899 19.58 29.0343 18.2542C29.3787 16.9283 29.4148 15.5412 29.1398 14.1992C28.8647 12.8572 28.2859 11.5961 27.4477 10.5126C26.6095 9.42912 25.5342 8.55208 24.3043 7.94878C23.0744 7.34548 21.7227 7.03196 20.3529 7.03229V7.03223ZM13.6495 21.9423C12.9995 22.1749 12.3153 22.2977 11.625 22.3057C9.95322 22.3057 8.34993 21.6416 7.16782 20.4595C5.9857 19.2774 5.3216 17.6741 5.3216 16.0023C5.3216 14.3306 5.9857 12.7273 7.16782 11.5452C8.34993 10.363 9.95322 9.69893 11.625 9.69893C12.3153 9.70691 12.9995 9.82972 13.6495 10.0623C12.1897 11.6965 11.3828 13.8111 11.3828 16.0023C11.3828 18.1936 12.1897 20.3081 13.6495 21.9423V21.9423ZM15.9889 20.5325C15.376 19.9478 14.8881 19.2449 14.5547 18.4662C14.2213 17.6876 14.0495 16.8493 14.0495 16.0023C14.0495 15.1552 14.2213 14.317 14.5547 13.5383C14.8881 12.7597 15.376 12.0567 15.9889 11.4721C16.6018 12.0567 17.0898 12.7597 17.4231 13.5383C17.7565 14.317 17.9284 15.1552 17.9284 16.0023C17.9284 16.8493 17.7565 17.6876 17.4231 18.4662C17.0898 19.2449 16.6018 19.9478 15.9889 20.5325ZM20.3529 22.3057C19.6625 22.2977 18.9784 22.1749 18.3284 21.9423C19.7881 20.3081 20.595 18.1936 20.595 16.0023C20.595 13.8111 19.7881 11.6965 18.3284 10.0623C18.9784 9.82972 19.6625 9.70691 20.3529 9.69893C22.0246 9.69893 23.6279 10.363 24.81 11.5452C25.9921 12.7273 26.6562 14.3306 26.6562 16.0023C26.6562 17.6741 25.9921 19.2774 24.81 20.4595C23.6279 21.6416 22.0246 22.3057 20.3529 22.3057V22.3057Z" fill="white"/>
</svg>
