<svg width="20" height="19" viewBox="0 0 20 19" fill="none" xmlns="http://www.w3.org/2000/svg">
<path d="M15.3468 19C15.1625 18.9994 14.9788 18.9787 14.7988 18.9381C11.372 18.2107 8.21497 16.505 5.69112 14.0176C3.22114 11.5246 1.50807 8.35056 0.759183 4.87942C0.67088 4.44681 0.692553 3.99817 0.822117 3.57664C0.951681 3.15512 1.18478 2.7749 1.49897 2.47258L3.69095 0.307539C3.80291 0.198886 3.93593 0.115682 4.08135 0.0633574C4.22676 0.0110325 4.38129 -0.00923727 4.53486 0.003871C4.69408 0.0209174 4.84774 0.0735533 4.98502 0.158077C5.12229 0.242601 5.23986 0.35696 5.32945 0.493113L8.06941 4.64886C8.17216 4.81011 8.22176 5.00094 8.21091 5.19329C8.20006 5.38563 8.12933 5.56932 8.00914 5.71732L6.63367 7.40436C7.18147 8.64853 7.95726 9.77301 8.9188 10.7166C9.87412 11.6944 11.0033 12.4752 12.2451 13.0166L13.9494 11.6276C14.0925 11.5115 14.2667 11.4429 14.4488 11.4308C14.6308 11.4188 14.8122 11.4639 14.9687 11.5601L19.106 14.3044C19.248 14.3914 19.3689 14.5102 19.4598 14.652C19.5507 14.7937 19.6091 14.9548 19.6307 15.123C19.6523 15.2913 19.6366 15.4623 19.5846 15.6234C19.5327 15.7845 19.4458 15.9315 19.3307 16.0533L17.1935 18.2239C16.9507 18.4718 16.6626 18.668 16.3457 18.8012C16.0287 18.9344 15.6892 19.0019 15.3468 19ZM4.44718 1.11732L2.2552 3.28236C2.07845 3.45137 1.94761 3.66468 1.87555 3.90132C1.80349 4.13796 1.79269 4.38977 1.84421 4.63199C2.54056 7.88918 4.14124 10.8697 6.45283 13.2134C8.82794 15.5536 11.7988 17.1579 15.0234 17.8415C15.2675 17.8939 15.5205 17.8833 15.7596 17.8107C15.9987 17.738 16.2165 17.6056 16.3934 17.4254L18.5306 15.2547L14.5357 12.6061L12.7054 14.1019C12.6354 14.1588 12.5528 14.1973 12.4649 14.214C12.3771 14.2306 12.2865 14.225 12.2013 14.1975C10.6815 13.6229 9.30429 12.7108 8.16805 11.5264C6.9928 10.4001 6.08054 9.01605 5.49933 7.47747C5.47474 7.38432 5.47392 7.28625 5.49695 7.19269C5.51999 7.09913 5.5661 7.01322 5.63084 6.94324L7.11043 5.12685L4.44718 1.11732Z" fill="white"/>
</svg>
