<svg width="26" height="30" viewBox="0 0 26 30" fill="none" xmlns="http://www.w3.org/2000/svg">
<path d="M24.2494 8.47257C24.0192 8.21446 23.7633 7.98046 23.4857 7.77417C23.5997 6.88098 23.5209 5.97372 23.2546 5.11355C22.9884 4.25338 22.5408 3.46027 21.9421 2.78768C20.4968 1.15877 18.0333 0.333252 14.6192 0.333252H6.33408C5.73552 0.334847 5.15702 0.549184 4.70192 0.937975C4.24683 1.32677 3.94477 1.86469 3.84971 2.45565L0.396573 24.3307C0.347719 24.6239 0.363396 24.9242 0.442511 25.2107C0.521627 25.4972 0.662277 25.7631 0.854659 25.9897C1.04704 26.2163 1.28653 26.3982 1.55642 26.5227C1.82631 26.6473 2.12013 26.7115 2.41737 26.7108H5.96949L5.86016 27.4049C5.81595 27.684 5.83277 27.9695 5.90947 28.2415C5.98616 28.5135 6.12091 28.7657 6.30444 28.9807C6.48796 29.1957 6.7159 29.3683 6.97255 29.4867C7.22919 29.6051 7.50846 29.6665 7.79111 29.6666H12.1036C12.6623 29.671 13.2042 29.4762 13.6321 29.117C14.06 28.7579 14.3458 28.2579 14.4383 27.7069L15.2925 22.3319L15.3068 22.259H15.7052C21.0815 22.259 24.4396 19.6015 25.4188 14.5754C25.7175 13.5379 25.7673 12.4445 25.5641 11.3841C25.3609 10.3237 24.9105 9.32622 24.2494 8.47257ZM7.45648 17.2721L6.50384 23.3191L6.38876 24.0442H3.14137L6.46299 2.99992H14.6192C17.2 2.99992 19.0424 3.53899 19.9421 4.552C20.3668 5.04579 20.663 5.63681 20.8044 6.27258C20.9458 6.90835 20.9281 7.5692 20.7527 8.19645L20.7279 8.3461C20.7117 8.44808 20.6969 8.54769 20.67 8.6744C20.4129 10.5796 19.4607 12.3226 17.9965 13.5684C16.3527 14.7116 14.3716 15.2673 12.3731 15.1458H9.94215C9.34185 15.1438 8.76078 15.3573 8.30461 15.7475C7.84844 16.1377 7.54749 16.6787 7.45648 17.2721ZM22.8015 14.065C22.0671 17.8359 19.8119 19.5924 15.7052 19.5924H15.0606C14.5014 19.588 13.959 19.7834 13.531 20.1434C13.103 20.5033 12.8175 21.0042 12.726 21.5559L11.8601 26.9882L8.62315 26.9999L9.26068 22.9548L10.0755 17.8176H12.3679C12.577 17.8176 12.7618 17.7862 12.9654 17.7791C13.4439 17.7625 13.9209 17.7441 14.369 17.6886C14.6427 17.6545 14.8938 17.5923 15.1561 17.5436C15.5195 17.4765 15.8831 17.4101 16.2242 17.3153C16.478 17.2446 16.7149 17.1537 16.9563 17.0678C17.2753 16.9546 17.5894 16.8358 17.8864 16.6962C18.1104 16.5907 18.3238 16.4735 18.5352 16.3532C18.8165 16.1938 19.089 16.0195 19.3517 15.8309C19.5414 15.6941 19.7275 15.5537 19.905 15.4029C20.1566 15.186 20.3956 14.955 20.6209 14.711C20.7716 14.5503 20.9258 14.3943 21.0653 14.2213C21.2968 13.9265 21.5105 13.6181 21.7053 13.2978C21.8073 13.1349 21.9203 12.9842 22.0141 12.8127C22.2842 12.3185 22.5163 11.8045 22.7085 11.275C22.72 11.2432 22.7366 11.2164 22.7479 11.1844C22.7532 11.1694 22.7611 11.1569 22.7663 11.1419C23.0305 12.0968 23.0427 13.104 22.8015 14.065Z" fill="white"/>
</svg>
