<svg width="18" height="20" viewBox="0 0 18 20" fill="none" xmlns="http://www.w3.org/2000/svg">
<path d="M13.0002 2C12.1645 2.75391 11.4099 3.54648 10.7413 4.34258C9.64607 2.87578 8.28804 1.38789 6.75 0C2.80205 3.56133 0 8.20156 0 11C0 15.9707 4.02951 20 9 20C13.9705 20 18 15.9707 18 11C18 8.91914 15.9115 4.62734 13.0002 2ZM12.2179 15.3066C11.3476 15.8988 10.2745 16.25 9.11491 16.25C6.21603 16.25 3.85714 14.3852 3.85714 11.3574C3.85714 9.84922 4.83388 8.52031 6.78174 6.25C7.06018 6.56172 10.7526 11.1461 10.7526 11.1461L13.1083 8.53359C13.2746 8.80117 13.4261 9.06289 13.5611 9.31367C14.66 11.3523 14.1963 13.9609 12.2179 15.3066Z" fill="#FFF323"/>
</svg>
