<svg width="40" height="40" viewBox="0 0 40 40" fill="none" xmlns="http://www.w3.org/2000/svg">
<g clip-path="url(#clip0_41_422)">
<path d="M14.1833 33.3332H14.05C11.3639 33.3097 8.71671 32.6892 6.3 31.5165C5.85546 31.3077 5.48943 30.9621 5.25551 30.5302C5.02158 30.0984 4.93204 29.603 5 29.1165C5.07391 28.6268 5.30065 28.173 5.64784 27.8198C5.99504 27.4666 6.44495 27.2321 6.93333 27.1499C8.43102 26.9501 9.87181 26.4452 11.1667 25.6665C8.9186 23.9089 7.18792 21.5758 6.15803 18.9145C5.12814 16.2533 4.83742 13.3629 5.31667 10.5499C5.38165 10.1043 5.57327 9.68676 5.86875 9.34697C6.16422 9.00718 6.55109 8.75943 6.98333 8.6332C7.40386 8.50114 7.85391 8.49549 8.27761 8.61697C8.70132 8.73846 9.08001 8.98171 9.36667 9.31654C10.34 10.5928 11.5632 11.6575 12.9615 12.4455C14.3599 13.2335 15.9041 13.7283 17.5 13.8999C17.5762 11.9363 18.4201 10.0811 19.85 8.7332C20.564 8.04949 21.4069 7.51472 22.3297 7.16005C23.2524 6.80538 24.2365 6.6379 25.2247 6.66737C26.2128 6.69685 27.1852 6.92268 28.0851 7.33172C28.9851 7.74076 29.7947 8.32482 30.4667 9.04987C30.6417 9.20465 30.8593 9.30329 31.0911 9.33301C31.3228 9.36272 31.5582 9.32215 31.7667 9.21654C32.1641 9.02912 32.6065 8.95856 33.0425 9.01311C33.4785 9.06766 33.8899 9.24506 34.2289 9.52461C34.5679 9.80417 34.8203 10.1743 34.9569 10.592C35.0934 11.0096 35.1084 11.4574 35 11.8832C34.6156 13.4667 33.8872 14.9462 32.8667 16.2165C32.6417 20.9578 30.5514 25.4178 27.0516 28.6242C23.5517 31.8306 18.9261 33.5233 14.1833 33.3332ZM14.1833 29.9999H14.3167C16.2544 30.0665 18.1862 29.7478 19.9999 29.0623C21.8136 28.3768 23.4732 27.3381 24.8824 26.0063C26.2916 24.6746 27.4225 23.0764 28.2094 21.3044C28.9964 19.5323 29.4237 17.6217 29.4667 15.6832C29.4942 15.152 29.7133 14.6487 30.0833 14.2665C30.4898 13.7519 30.8365 13.1928 31.1167 12.5999C30.5162 12.601 29.9223 12.4754 29.3738 12.2313C28.8252 11.9872 28.3344 11.63 27.9333 11.1832C27.5477 10.8008 27.0896 10.4992 26.5859 10.296C26.0822 10.0928 25.5431 9.99212 25 9.99987C24.4515 9.98569 23.9056 10.08 23.3936 10.2773C22.8817 10.4747 22.4137 10.7712 22.0167 11.1499C21.481 11.6582 21.0882 12.2983 20.8776 13.0061C20.667 13.714 20.646 14.4647 20.8167 15.1832L21.25 17.0832L19.3 17.2165C17.3018 17.3795 15.2921 17.1061 13.41 16.4155C11.5279 15.7248 9.81847 14.6333 8.4 13.2165C8.33916 15.4105 8.888 17.5784 9.98549 19.4792C11.083 21.3799 12.6861 22.939 14.6167 23.9832L16.2 24.8832L15.15 26.3832C14.0145 27.8724 12.4586 28.987 10.6833 29.5832C11.8222 29.8686 12.9926 30.0086 14.1667 29.9999H14.1833Z" fill="#FAFAFA"/>
</g>
<defs>
<clipPath id="clip0_41_422">
<rect width="40" height="40" fill="white"/>
</clipPath>
</defs>
</svg>
