<svg width="28" height="28" viewBox="0 0 28 28" fill="none" xmlns="http://www.w3.org/2000/svg">
<path d="M27.0763 14.1975C27.0954 6.64154 21.0472 0.504514 13.574 0.485454C6.09572 0.46638 0.0216256 6.57248 0.00251362 14.1285C-0.0147497 20.9536 4.91952 26.6253 11.3901 27.6667L11.4143 18.1121L7.97675 18.1034L7.98675 14.1497L11.4243 14.1585L11.4319 11.1434C11.4406 7.71633 13.4632 5.82885 16.5564 5.83674C18.0378 5.84052 19.588 6.11119 19.588 6.11119L19.5795 9.47672L17.8696 9.47236C16.191 9.46807 15.6638 10.5225 15.661 11.6039L15.6546 14.1684L19.4085 14.178L18.7953 18.1301L15.6446 18.1221L15.6204 27.6767C22.0911 26.6682 27.0591 21.0218 27.0763 14.1967L27.0763 14.1975Z" fill="#193FF6"/>
</svg>
