<svg width="18" height="18" viewBox="0 0 18 18" fill="none" xmlns="http://www.w3.org/2000/svg">
<path d="M1.4043 6.56702C1.40453 6.41693 1.44311 6.26942 1.51636 6.1386C1.58961 6.00777 1.69506 5.89801 1.82263 5.81982L9.26447 1.25244L16.7063 5.81982C16.8339 5.89801 16.9393 6.00777 17.0126 6.1386C17.0858 6.26942 17.1244 6.41693 17.1246 6.56702V15.2843C17.1246 15.5169 17.0326 15.74 16.8688 15.9045C16.7051 16.0689 16.4829 16.1613 16.2513 16.1613H2.27765C2.04602 16.1613 1.82388 16.0689 1.6601 15.9045C1.49631 15.74 1.4043 15.5169 1.4043 15.2843V6.56702Z" stroke="#31508C" stroke-width="1.75399"/>
<path d="M1.4043 6.95288L9.26447 11.7763L17.1246 6.95288" stroke="#31508C" stroke-width="1.75399" stroke-linecap="round"/>
</svg>
