<svg width="32" height="20" viewBox="0 0 32 20" fill="none" xmlns="http://www.w3.org/2000/svg">
<path d="M12 4.66675L6.02133 15.3334H2.66667V7.33342C2.64533 6.07075 2.29867 5.48675 1.33333 4.66675H5.33333V11.3334L9.33333 4.66675H12ZM13.312 4.66675L9.34267 15.3334H12L16 4.66675H13.312ZM28.6667 15.3334L28.708 13.2094L25.6667 13.1667L24.604 15.3334H22.3227L28 4.66675H30.6667L31.396 15.3334H28.6667ZM28.6667 7.37475L26.6667 11.3334H28.6453L28.6667 7.37475ZM19.444 6.97208C20.2453 4.97075 22.6667 6.91741 23 7.11208C23.2773 6.69608 23.7507 6.02942 24 5.66808C23.056 4.58408 19.2427 3.52808 17.3053 5.91875C14 10.0027 20.8053 11.1974 19.6107 12.8347C18.8413 13.8894 16.7773 13.7227 15.2773 12.7227C15.0547 13.1401 14.36 14.3894 14.36 14.3894C15.5827 15.1974 16.4987 15.3347 17.7773 15.3347C19.056 15.3347 21.5907 15.1334 22.3227 12.6401C23.3893 9.00008 18.556 9.19475 19.444 6.97208ZM0 0.666748H32V2.00008H0V0.666748ZM0 18.0001H32V19.3334H0V18.0001Z" fill="white"/>
</svg>
